SplineFontDB: 3.2
FontName: Untitled1
FullName: Untitled1
FamilyName: Untitled1
Weight: Regular
Copyright: Copyright (c) 2021, winst
UComments: "2021-6-30: Created with FontForge (http://fontforge.org)"
Version: 001.000
ItalicAngle: 0
UnderlinePosition: -100
UnderlineWidth: 50
Ascent: 800
Descent: 200
InvalidEm: 0
LayerCount: 2
Layer: 0 0 "Back" 1
Layer: 1 0 "Fore" 0
XUID: [1021 981 -392200245 1393]
StyleMap: 0x0000
FSType: 0
OS2Version: 0
OS2_WeightWidthSlopeOnly: 0
OS2_UseTypoMetrics: 1
CreationTime: 1625095253
ModificationTime: 1676489405
OS2TypoAscent: 0
OS2TypoAOffset: 1
OS2TypoDescent: 0
OS2TypoDOffset: 1
OS2TypoLinegap: 90
OS2WinAscent: 0
OS2WinAOffset: 1
OS2WinDescent: 0
OS2WinDOffset: 1
HheadAscent: 0
HheadAOffset: 1
HheadDescent: 0
HheadDOffset: 1
DEI: 91125
Encoding: Custom
UnicodeInterp: none
NameList: AGL For New Fonts
DisplaySize: -48
AntiAlias: 1
FitToEm: 0
WinInfo: 0 57 21
BeginChars: 256 54

StartChar: copy_base
Encoding: 33 57377 0
Width: 1000
Flags: H
LayerCount: 2
Fore
SplineSet
125 549.999023438 m 2
 125 596.266601562 150.137695312 636.663085938 187.5 658.276367188 c 1
 187.5 18.75 l 2
 187.5 -67.5439453125 257.456054688 -137.5 343.75 -137.5 c 2
 733.275390625 -137.5 l 1
 711.662109375 -174.862304688 671.268554688 -200 625 -200 c 2
 343.75 -200 l 2
 222.9375 -200 125 -102.0625 125 18.75 c 2
 125 549.999023438 l 2
EndSplineSet
Validated: 1
EndChar

StartChar: copy_overlay
Encoding: 34 57378 1
Width: 1000
Flags: H
LayerCount: 2
Fore
SplineSet
375 800 m 2
 750 800 l 2
 819.037109375 800 875 744.03515625 875 675 c 2
 875 50 l 2
 875 -19.037109375 819.037109375 -75 750 -75 c 2
 375 -75 l 2
 305.96484375 -75 250 -19.037109375 250 50 c 2
 250 675 l 2
 250 744.03515625 305.96484375 800 375 800 c 2
312.5 675 m 2
 312.5 50 l 2
 312.5 15.4814453125 340.482421875 -12.5 375 -12.5 c 2
 750 -12.5 l 2
 784.518554688 -12.5 812.5 15.4814453125 812.5 50 c 2
 812.5 675 l 2
 812.5 709.517578125 784.518554688 737.5 750 737.5 c 2
 375 737.5 l 2
 340.482421875 737.5 312.5 709.517578125 312.5 675 c 2
EndSplineSet
Validated: 1
EndChar

StartChar: paste_base
Encoding: 35 57379 2
Width: 1000
Flags: H
LayerCount: 2
Fore
SplineSet
343.75 612.5 m 2
 302.930664062 612.5 268.204101562 638.587890625 255.333984375 675 c 2
 156.25 675 l 2
 138.991210938 675 125 661.008789062 125 643.75 c 2
 125 -106.25 l 2
 125 -123.505859375 138.991210938 -137.5 156.25 -137.5 c 2
 378.125976562 -137.5 l 2
 382.8125 -160.587890625 392.590820312 -181.831054688 406.23828125 -200 c 1
 156.25 -200 l 2
 149.778320312 -200 143.458984375 -199.34375 137.356445312 -198.09375 c 0
 94.6357421875 -189.356445312 62.5 -151.556640625 62.5 -106.25 c 2
 62.5 643.75 l 2
 62.5 695.52734375 104.47265625 737.5 156.25 737.5 c 2
 255.333984375 737.5 l 2
 268.204101562 773.912109375 302.930664062 800 343.75 800 c 2
 531.25 800 l 2
 572.069335938 800 606.795898438 773.912109375 619.666015625 737.5 c 2
 718.75 737.5 l 2
 770.525390625 737.5 812.5 695.52734375 812.5 643.75 c 2
 812.5 550 l 1
 750 550 l 1
 750 643.75 l 2
 750 661.008789062 736.005859375 675 718.75 675 c 2
 619.666015625 675 l 2
 606.795898438 638.587890625 572.069335938 612.5 531.25 612.5 c 2
 343.75 612.5 l 2
312.5 706.25 m 0
 312.5 688.991210938 326.491210938 675 343.75 675 c 2
 531.25 675 l 2
 548.508789062 675 562.5 688.991210938 562.5 706.25 c 0
 562.5 723.508789062 548.508789062 737.5 531.25 737.5 c 2
 343.75 737.5 l 2
 326.491210938 737.5 312.5 723.508789062 312.5 706.25 c 0
EndSplineSet
Validated: 1
EndChar

StartChar: paste_overlay
Encoding: 36 57380 3
Width: 1000
Flags: H
LayerCount: 2
Fore
SplineSet
531.25 487.5 m 2
 843.75 487.5 l 2
 895.525390625 487.5 937.5 445.52734375 937.5 393.75 c 2
 937.5 -106.25 l 2
 937.5 -158.025390625 895.525390625 -200 843.75 -200 c 2
 531.25 -200 l 2
 479.47265625 -200 437.5 -158.025390625 437.5 -106.25 c 2
 437.5 393.75 l 2
 437.5 445.52734375 479.47265625 487.5 531.25 487.5 c 2
500 393.75 m 2
 500 -106.25 l 2
 500 -123.505859375 513.991210938 -137.5 531.25 -137.5 c 2
 843.75 -137.5 l 2
 861.005859375 -137.5 875 -123.505859375 875 -106.25 c 2
 875 393.75 l 2
 875 411.008789062 861.005859375 425 843.75 425 c 2
 531.25 425 l 2
 513.991210938 425 500 411.008789062 500 393.75 c 2
EndSplineSet
Validated: 1
EndChar

StartChar: share_base
Encoding: 37 57381 4
Width: 1000
Flags: H
LayerCount: 2
Fore
SplineSet
62.5 -14.943359375 m 2
 62.5 550 l 2
 62.5 566.6015625 65.7548828125 582.389648438 72.265625 597.36328125 c 0
 78.7763671875 612.662109375 87.5654296875 626.009765625 98.6328125 637.40234375 c 0
 109.700195312 648.795898438 122.55859375 657.91015625 137.20703125 664.74609375 c 0
 152.181640625 671.58203125 168.130859375 675 185.05859375 675 c 2
 406.25 675 l 2
 414.713867188 675 422.037109375 671.907226562 428.22265625 665.72265625 c 0
 434.407226562 659.537109375 437.5 652.213867188 437.5 643.75 c 0
 437.5 635.286132812 434.407226562 627.962890625 428.22265625 621.77734375 c 0
 422.037109375 615.592773438 414.713867188 612.5 406.25 612.5 c 2
 187.5 612.5 l 2
 178.7109375 612.5 170.573242188 610.872070312 163.0859375 607.6171875 c 0
 155.598632812 604.362304688 148.92578125 599.8046875 143.06640625 593.9453125 c 0
 137.532226562 588.411132812 133.137695312 581.901367188 129.8828125 574.4140625 c 0
 126.627929688 566.926757812 125 558.7890625 125 550 c 2
 125 -12.5 l 2
 125 -21.287109375 126.627929688 -29.587890625 129.8828125 -37.400390625 c 0
 133.137695312 -44.8876953125 137.532226562 -51.400390625 143.06640625 -56.931640625 c 0
 148.599609375 -62.46875 155.110351562 -66.8623046875 162.59765625 -70.119140625 c 0
 170.41015625 -73.375 178.7109375 -75 187.5 -75 c 2
 750 -75 l 2
 767.25 -75 781.900390625 -68.974609375 793.943359375 -56.931640625 c 0
 802.081054688 -48.7939453125 807.293945312 -38.869140625 809.568359375 -27.150390625 c 0
 812.174804688 -15.431640625 813.474609375 -3.0625 813.474609375 9.962890625 c 0
 813.474609375 19.400390625 813.150390625 28.681640625 812.5 37.7939453125 c 0
 812.174804688 46.90625 812.012695312 55.693359375 812.012695312 64.162109375 c 0
 812.012695312 70.994140625 812.337890625 77.34375 812.987304688 83.2001953125 c 0
 813.962890625 89.0625 815.59375 94.1064453125 817.869140625 98.337890625 c 0
 820.150390625 102.900390625 823.244140625 106.3125 827.150390625 108.59375 c 0
 831.380859375 111.200195312 836.912109375 112.5 843.75 112.5 c 0
 852.212890625 112.5 859.537109375 109.40625 865.724609375 103.224609375 c 0
 871.90625 97.037109375 875 89.712890625 875 81.25 c 2
 875 -12.5 l 2
 875 -29.099609375 871.744140625 -45.0498046875 865.237304688 -60.349609375 c 0
 858.724609375 -75.3251953125 849.9375 -88.505859375 838.869140625 -99.900390625 c 0
 827.799804688 -111.293945312 814.78125 -120.412109375 799.806640625 -127.244140625 c 0
 785.15625 -134.081054688 769.369140625 -137.5 752.443359375 -137.5 c 2
 187.5 -137.5 l 2
 170.8984375 -137.5 154.948242188 -134.244140625 139.6484375 -127.737304688 c 0
 124.674804688 -121.224609375 111.490234375 -112.4375 100.09765625 -101.369140625 c 0
 88.7041015625 -90.2998046875 79.58984375 -77.443359375 72.75390625 -62.7939453125 c 0
 65.91796875 -47.818359375 62.5 -31.869140625 62.5 -14.943359375 c 2
EndSplineSet
Validated: 1
EndChar

StartChar: share_overlay
Encoding: 38 57382 5
Width: 1000
Flags: H
LayerCount: 2
Fore
SplineSet
660.643554688 112.5 m 0
 650.880859375 112.5 642.412109375 116.081054688 635.255859375 123.244140625 c 0
 628.418945312 130.731445312 625 139.193359375 625 148.630859375 c 2
 625 279.4921875 l 1
 614.583007812 279.4921875 604.00390625 278.515625 593.26171875 276.5625 c 0
 582.844726562 274.934570312 572.590820312 272.981445312 562.5 270.703125 c 0
 534.1796875 264.84375 507.974609375 257.193359375 483.88671875 247.75390625 c 0
 459.797851562 238.313476562 436.686523438 227.24609375 414.55078125 214.55078125 c 0
 392.740234375 202.181640625 371.418945312 188.346679688 350.5859375 173.049804688 c 0
 329.752929688 157.75 308.431640625 141.143554688 286.62109375 123.244140625 c 0
 283.041015625 120.3125 279.296875 118.03125 275.390625 116.40625 c 0
 271.484375 114.78125 267.08984375 113.962890625 262.20703125 113.962890625 c 0
 252.44140625 113.962890625 243.978515625 117.380859375 236.81640625 124.21875 c 0
 229.98046875 131.380859375 226.5625 139.84375 226.5625 149.612304688 c 2
 226.5625 153.512695312 l 2
 234.375 212.760742188 247.55859375 266.958984375 266.11328125 316.11328125 c 0
 284.994140625 365.592773438 310.384765625 408.3984375 342.28515625 444.53125 c 0
 374.51171875 480.6640625 413.737304688 509.47265625 459.9609375 530.95703125 c 0
 506.510742188 552.44140625 561.5234375 564.811523438 625 568.06640625 c 2
 625 701.3671875 l 2
 625 711.458007812 628.418945312 719.921875 635.255859375 726.7578125 c 0
 642.087890625 733.918945312 650.556640625 737.5 660.643554688 737.5 c 0
 669.755859375 737.5 677.737304688 734.08203125 684.568359375 727.24609375 c 2
 965.331054688 450.87890625 l 2
 968.912109375 447.297851562 971.681640625 443.391601562 973.630859375 439.16015625 c 0
 975.587890625 435.25390625 976.5625 430.534179688 976.5625 425 c 0
 976.5625 414.909179688 972.981445312 406.282226562 965.818359375 399.12109375 c 2
 684.568359375 122.755859375 l 2
 677.081054688 115.918945312 669.106445312 112.5 660.643554688 112.5 c 0
687.5 213.0859375 m 1
 902.831054688 425 l 1
 687.5 636.9140625 l 1
 687.5 509.9609375 l 2
 675.456054688 509.309570312 663.412109375 508.49609375 651.369140625 507.51953125 c 0
 639.650390625 506.869140625 627.768554688 506.0546875 615.72265625 505.078125 c 0
 570.80078125 501.823242188 530.76171875 492.87109375 495.60546875 478.22265625 c 0
 460.775390625 463.57421875 430.500976562 443.879882812 404.78515625 419.140625 c 0
 379.068359375 394.401367188 357.583984375 364.778320312 340.33203125 330.2734375 c 0
 323.405273438 296.09375 310.221679688 257.682617188 300.78125 215.0390625 c 1
 322.590820312 231.315429688 345.377929688 246.452148438 369.140625 260.44921875 c 0
 393.229492188 274.771484375 417.96875 287.3046875 443.359375 298.046875 c 0
 468.75 309.114257812 494.62890625 318.229492188 520.99609375 325.390625 c 0
 547.688476562 332.877929688 574.70703125 337.922851562 602.05078125 340.52734375 c 0
 616.374023438 341.829101562 630.53125 342.96875 644.53125 343.9453125 c 0
 658.856445312 345.247070312 673.174804688 346.549804688 687.5 347.8515625 c 1
 687.5 213.0859375 l 1
EndSplineSet
Validated: 1
EndChar

StartChar: rename_b
Encoding: 39 57383 6
Width: 1000
Flags: H
LayerCount: 2
Fore
SplineSet
156.25 675 m 2
 406.25 675 l 1
 406.25 612.5 l 1
 156.25 612.5 l 2
 104.47265625 612.5 62.5 570.52734375 62.5 518.75 c 2
 62.5 81.25 l 2
 62.5 29.474609375 104.47265625 -12.5 156.25 -12.5 c 2
 406.25 -12.5 l 1
 406.25 -75 l 1
 156.25 -75 l 2
 69.9560546875 -75 0 -5.0439453125 0 81.25 c 2
 0 518.75 l 2
 0 605.043945312 69.9560546875 675 156.25 675 c 2
843.75 -12.5 m 2
 895.525390625 -12.5 937.5 29.474609375 937.5 81.25 c 2
 937.5 518.75 l 2
 937.5 570.52734375 895.525390625 612.5 843.75 612.5 c 2
 593.75 612.5 l 1
 593.75 675 l 1
 843.75 675 l 2
 930.043945312 675 1000 605.043945312 1000 518.75 c 2
 1000 81.25 l 2
 1000 -5.0439453125 930.043945312 -75 843.75 -75 c 2
 593.75 -75 l 1
 593.75 -12.5 l 1
 843.75 -12.5 l 2
EndSplineSet
Validated: 1
EndChar

StartChar: rename_o
Encoding: 40 57384 7
Width: 1000
Flags: H
LayerCount: 2
Fore
SplineSet
406.25 800 m 2
 593.75 800 l 2
 611.008789062 800 625 786.008789062 625 768.75 c 0
 625 751.491210938 611.008789062 737.5 593.75 737.5 c 2
 531.25 737.5 l 1
 531.25 -137.5 l 1
 593.75 -137.5 l 2
 611.008789062 -137.5 625 -151.494140625 625 -168.75 c 0
 625 -186.005859375 611.008789062 -200 593.75 -200 c 2
 406.25 -200 l 2
 388.991210938 -200 375 -186.005859375 375 -168.75 c 0
 375 -151.494140625 388.991210938 -137.5 406.25 -137.5 c 2
 468.75 -137.5 l 1
 468.75 737.5 l 1
 406.25 737.5 l 2
 388.991210938 737.5 375 751.491210938 375 768.75 c 0
 375 786.008789062 388.991210938 800 406.25 800 c 2
EndSplineSet
Validated: 1
EndChar

StartChar: sort_b
Encoding: 41 57385 8
Width: 1000
Flags: H
LayerCount: 2
Fore
SplineSet
79.2783203125 444.034179688 m 1
 284.635742188 649.301757812 l 1
 287.678710938 651.928710938 l 1
 289.739257812 653.299804688 l 1
 292.323242188 654.674804688 l 1
 296.063476562 656.07421875 l 1
 299.814453125 656.879882812 l 1
 301.6796875 657.077148438 l 1
 303.571289062 657.142578125 l 1
 305.611328125 657.06640625 l 1
 308.896484375 656.611328125 l 1
 312.69921875 655.546875 l 1
 315.758789062 654.217773438 l 1
 317.68359375 653.127929688 l 1
 319.939453125 651.561523438 l 1
 322.5078125 649.301757812 l 1
 527.864257812 444.034179688 l 2
 538.328125 433.575195312 538.33203125 416.618164062 527.87109375 406.153320312 c 0
 518.364257812 396.642578125 503.485351562 395.775390625 492.99609375 403.553710938 c 2
 489.993164062 406.146484375 l 1
 330.342773438 565.73046875 l 1
 330.357421875 -30.357421875 l 2
 330.357421875 -45.150390625 318.364257812 -57.142578125 303.571289062 -57.142578125 c 0
 290.010742188 -57.142578125 278.803710938 -47.064453125 277.030273438 -33.9931640625 c 2
 276.786132812 -30.357421875 l 1
 276.771484375 565.73046875 l 1
 117.150390625 406.146484375 l 2
 107.638671875 396.639648438 92.7578125 395.778320312 82.2734375 403.560546875 c 2
 79.26953125 406.153320312 l 2
 69.7626953125 415.6640625 68.9013671875 430.546875 76.68359375 441.032226562 c 2
 79.2783203125 444.034179688 l 1
EndSplineSet
Validated: 33
EndChar

StartChar: sort_o
Encoding: 42 57386 9
Width: 1000
Flags: H
LayerCount: 2
Fore
SplineSet
696.428710938 657.142578125 m 0
 709.989257812 657.142578125 721.196289062 647.06640625 722.971679688 633.9921875 c 2
 723.213867188 630.357421875 l 1
 723.213867188 34.392578125 l 1
 882.849609375 193.942382812 l 1
 885.853515625 196.536132812 l 2
 896.342773438 204.314453125 911.221679688 203.446289062 920.728515625 193.935546875 c 0
 930.239257812 184.424804688 931.099609375 169.54296875 923.314453125 159.060546875 c 2
 920.721679688 156.057617188 l 1
 716.161132812 -48.4716796875 l 2
 711.264648438 -53.8037109375 704.235351562 -57.142578125 696.428710938 -57.142578125 c 0
 689.921875 -57.142578125 683.95703125 -54.8212890625 679.317382812 -50.9638671875 c 2
 676.696289062 -48.4716796875 l 1
 472.135742188 156.057617188 l 1
 469.54296875 159.060546875 l 2
 462.62109375 168.37890625 462.536132812 181.171875 469.278320312 190.578125 c 2
 472.12890625 193.935546875 l 1
 475.131835938 196.528320312 l 2
 484.450195312 203.450195312 497.243164062 203.536132812 506.650390625 196.79296875 c 2
 510.006835938 193.942382812 l 1
 669.642578125 34.3212890625 l 1
 669.642578125 630.357421875 l 1
 669.885742188 633.9921875 l 2
 671.661132812 647.06640625 682.868164062 657.142578125 696.428710938 657.142578125 c 0
EndSplineSet
Validated: 33
EndChar

StartChar: selection_base
Encoding: 43 57387 10
Width: 1000
Flags: HW
LayerCount: 2
Fore
SplineSet
312.5 112.5 m 1
 375 112.5 l 1
 375 18.75 l 2
 375 -33.025390625 416.97265625 -75 468.75 -75 c 2
 781.25 -75 l 2
 833.025390625 -75 875 -33.025390625 875 18.75 c 2
 875 331.25 l 2
 875 383.02734375 833.025390625 425 781.25 425 c 2
 687.5 425 l 1
 687.5 487.5 l 1
 781.25 487.5 l 2
 867.543945312 487.5 937.5 417.543945312 937.5 331.25 c 2
 937.5 18.75 l 2
 937.5 -67.5439453125 867.543945312 -137.5 781.25 -137.5 c 2
 468.75 -137.5 l 2
 382.456054688 -137.5 312.5 -67.5439453125 312.5 18.75 c 2
 312.5 112.5 l 1
EndSplineSet
Validated: 1
EndChar

StartChar: selection_o
Encoding: 44 57388 11
Width: 1000
Flags: HW
LayerCount: 2
Fore
SplineSet
156.25 737.5 m 2
 531.25 737.5 l 2
 583.02734375 737.5 625 695.52734375 625 643.75 c 2
 625 268.75 l 2
 625 216.97265625 583.02734375 175 531.25 175 c 2
 156.25 175 l 2
 104.47265625 175 62.5 216.97265625 62.5 268.75 c 2
 62.5 643.75 l 2
 62.5 695.52734375 104.47265625 737.5 156.25 737.5 c 2
524.859375 525.140625 m 2
 538.588867188 538.870117188 538.588867188 561.129882812 524.859375 574.859375 c 0
 511.129882812 588.588867188 488.870117188 588.588867188 475.140625 574.859375 c 2
 281.25 380.96875 l 1
 212.359375 449.859375 l 2
 198.629882812 463.588867188 176.370117188 463.588867188 162.640625 449.859375 c 0
 148.911132812 436.129882812 148.911132812 413.870117188 162.640625 400.140625 c 2
 256.390625 306.390625 l 2
 270.120117188 292.661132812 292.379882812 292.661132812 306.109375 306.390625 c 2
 524.859375 525.140625 l 2
EndSplineSet
Validated: 33
EndChar

StartChar: setas_b
Encoding: 45 57389 12
Width: 1000
Flags: H
LayerCount: 2
Fore
SplineSet
604.166992188 239.845703125 m 2
 610.612304688 233.75 l 1
 853.466796875 -10.6962890625 l 1
 853.895507812 -7.466796875 l 1
 854.166992188 -2.1416015625 l 1
 854.166992188 227.125 l 2
 854.166992188 244.383789062 868.158203125 258.375 885.416992188 258.375 c 0
 901.237304688 258.375 914.3125 246.616210938 916.383789062 231.362304688 c 2
 916.666992188 227.125 l 1
 916.666992188 -2.1416015625 l 2
 916.666992188 -63.0791015625 869.095703125 -112.908203125 809.0625 -116.512695312 c 2
 802.083007812 -116.724609375 l 1
 572.916992188 -116.724609375 l 2
 555.658203125 -116.724609375 541.666992188 -102.733398438 541.666992188 -85.474609375 c 0
 541.666992188 -69.654296875 553.424804688 -56.5791015625 568.674804688 -54.5087890625 c 2
 572.916992188 -54.224609375 l 1
 802.083007812 -54.224609375 l 2
 804.141601562 -54.224609375 806.174804688 -54.1044921875 808.170898438 -53.87109375 c 1
 566.416992188 189.553710938 l 2
 531.549804688 224.424804688 476.049804688 226.083007812 439.216796875 194.537109375 c 2
 433.837890625 189.553710938 l 1
 189.40234375 -53.529296875 l 1
 192.590820312 -53.9541015625 l 1
 197.916992188 -54.224609375 l 1
 427.083007812 -54.224609375 l 1
 431.325195312 -54.5087890625 l 2
 446.575195312 -56.5791015625 458.333007812 -69.654296875 458.333007812 -85.474609375 c 0
 458.333007812 -101.295898438 446.575195312 -114.37109375 431.325195312 -116.4375 c 2
 427.083007812 -116.724609375 l 1
 197.916992188 -116.724609375 l 1
 190.936523438 -116.512695312 l 2
 133.305664062 -113.049804688 87.1591796875 -66.9912109375 83.5595703125 -9.3955078125 c 2
 83.3330078125 -2.1416015625 l 1
 83.3330078125 227.125 l 1
 83.619140625 231.362304688 l 2
 85.6875 246.616210938 98.7626953125 258.375 114.583007812 258.375 c 0
 130.404296875 258.375 143.478515625 246.616210938 145.547851562 231.362304688 c 2
 145.833007812 227.125 l 1
 145.833007812 -2.1416015625 l 1
 146.208007812 -8.25 l 1
 389.641601562 233.75 l 2
 448.55859375 292.666992188 542.81640625 294.696289062 604.166992188 239.845703125 c 2
427.083007812 716.70703125 m 2
 444.341796875 716.70703125 458.333007812 702.715820312 458.333007812 685.45703125 c 0
 458.333007812 669.63671875 446.575195312 656.5625 431.325195312 654.4921875 c 2
 427.083007812 654.20703125 l 1
 197.916992188 654.20703125 l 2
 170.94921875 654.20703125 148.76953125 633.712890625 146.102539062 607.44921875 c 2
 145.833007812 602.124023438 l 1
 145.833007812 372.858398438 l 2
 145.833007812 355.599609375 131.841796875 341.608398438 114.583007812 341.608398438 c 0
 98.7626953125 341.608398438 85.6875 353.366210938 83.619140625 368.62109375 c 2
 83.3330078125 372.858398438 l 1
 83.3330078125 602.124023438 l 2
 83.3330078125 663.0625 130.904296875 712.890625 190.936523438 716.498046875 c 2
 197.916992188 716.70703125 l 1
 427.083007812 716.70703125 l 2
802.083007812 716.70703125 m 1
 809.0625 716.498046875 l 2
 866.696289062 713.03515625 912.841796875 666.974609375 916.44140625 609.380859375 c 2
 916.666992188 602.124023438 l 1
 916.666992188 372.858398438 l 1
 916.383789062 368.62109375 l 2
 914.3125 353.366210938 901.237304688 341.608398438 885.416992188 341.608398438 c 0
 869.595703125 341.608398438 856.520507812 353.366210938 854.450195312 368.62109375 c 2
 854.166992188 372.858398438 l 1
 854.166992188 602.124023438 l 1
 853.895507812 607.44921875 l 2
 851.408203125 631.961914062 831.920898438 651.44921875 807.408203125 653.938476562 c 2
 802.083007812 654.20703125 l 1
 572.916992188 654.20703125 l 1
 568.674804688 654.4921875 l 2
 553.424804688 656.5625 541.666992188 669.63671875 541.666992188 685.45703125 c 0
 541.666992188 701.278320312 553.424804688 714.352539062 568.674804688 716.421875 c 2
 572.916992188 716.70703125 l 1
 802.083007812 716.70703125 l 1
EndSplineSet
Validated: 33
EndChar

StartChar: setas_o
Encoding: 46 57390 13
Width: 1000
Flags: H
LayerCount: 2
Fore
SplineSet
667.645507812 549.500976562 m 0
 713.829101562 549.500976562 751.266601562 512.0625 751.266601562 465.879882812 c 0
 751.266601562 419.697265625 713.829101562 382.258789062 667.645507812 382.258789062 c 0
 621.466796875 382.258789062 584.025390625 419.697265625 584.025390625 465.879882812 c 0
 584.025390625 512.0625 621.466796875 549.500976562 667.645507812 549.500976562 c 0
667.645507812 487.000976562 m 0
 655.983398438 487.000976562 646.525390625 477.544921875 646.525390625 465.879882812 c 0
 646.525390625 454.215820312 655.983398438 444.758789062 667.645507812 444.758789062 c 0
 679.3125 444.758789062 688.766601562 454.215820312 688.766601562 465.879882812 c 0
 688.766601562 477.544921875 679.3125 487.000976562 667.645507812 487.000976562 c 0
EndSplineSet
Validated: 1
EndChar

StartChar: copypath_b
Encoding: 47 57391 14
Width: 1000
Flags: H
LayerCount: 2
Fore
SplineSet
291.666992188 331.25 m 1
 708.333007812 331.25 l 2
 725.591796875 331.25 739.583007812 317.258789062 739.583007812 300 c 0
 739.583007812 284.178710938 727.825195312 271.104492188 712.575195312 269.033203125 c 2
 708.333007812 268.75 l 1
 291.666992188 268.75 l 2
 274.408203125 268.75 260.416992188 282.741210938 260.416992188 300 c 0
 260.416992188 315.821289062 272.172851562 328.895507812 287.42578125 330.966796875 c 2
 291.666992188 331.25 l 1
 708.333007812 331.25 l 1
 291.666992188 331.25 l 1
EndSplineSet
Validated: 5
EndChar

StartChar: copypath_o
Encoding: 48 57392 15
Width: 1000
Flags: H
LayerCount: 2
Fore
SplineSet
385.416992188 508.333007812 m 2
 402.67578125 508.333007812 416.666992188 494.341796875 416.666992188 477.083007812 c 0
 416.666992188 461.393554688 405.103515625 448.404296875 390.034179688 446.171875 c 2
 385.416992188 445.833007812 l 1
 291.666992188 445.833007812 l 2
 211.125 445.833007812 145.833007812 380.541992188 145.833007812 300 c 0
 145.833007812 222.333007812 206.544921875 158.849609375 283.09765625 154.412109375 c 2
 291.666992188 154.166992188 l 1
 385.416992188 154.166992188 l 2
 402.67578125 154.166992188 416.666992188 140.174804688 416.666992188 122.916992188 c 0
 416.666992188 107.224609375 405.103515625 94.2373046875 390.034179688 92.00390625 c 2
 385.416992188 91.6669921875 l 1
 291.666992188 91.6669921875 l 2
 176.607421875 91.6669921875 83.3330078125 184.94140625 83.3330078125 300 c 0
 83.3330078125 411.572265625 171.040039062 502.66015625 281.268554688 508.078125 c 2
 291.666992188 508.333007812 l 1
 385.416992188 508.333007812 l 2
708.333007812 508.333007812 m 2
 823.391601562 508.333007812 916.666992188 415.059570312 916.666992188 300 c 0
 916.666992188 188.428710938 828.958007812 97.341796875 718.729492188 91.9208984375 c 2
 708.333007812 91.6669921875 l 1
 614.583007812 91.6669921875 l 2
 597.325195312 91.6669921875 583.333007812 105.658203125 583.333007812 122.916992188 c 0
 583.333007812 138.608398438 594.895507812 151.595703125 609.966796875 153.829101562 c 2
 614.583007812 154.166992188 l 1
 708.333007812 154.166992188 l 2
 788.875 154.166992188 854.166992188 219.458007812 854.166992188 300 c 0
 854.166992188 377.666992188 793.454101562 441.150390625 716.904296875 445.5859375 c 2
 708.333007812 445.833007812 l 1
 614.583007812 445.833007812 l 2
 597.325195312 445.833007812 583.333007812 459.82421875 583.333007812 477.083007812 c 0
 583.333007812 492.7734375 594.895507812 505.762695312 609.966796875 507.994140625 c 2
 614.583007812 508.333007812 l 1
 708.333007812 508.333007812 l 2
EndSplineSet
Validated: 1
EndChar

StartChar: properties_b
Encoding: 49 57393 16
Width: 1000
Flags: HW
LayerCount: 2
Fore
SplineSet
0 331.25 m 0
 0 374.543945312 5.5341796875 416.047851562 16.6015625 455.76171875 c 0
 27.6689453125 495.80078125 43.2939453125 533.235351562 63.4765625 568.06640625 c 0
 83.984375 602.896484375 108.3984375 634.47265625 136.71875 662.79296875 c 0
 165.364257812 691.438476562 197.103515625 715.853515625 231.93359375 736.03515625 c 0
 266.764648438 756.54296875 304.036132812 772.331054688 343.75 783.3984375 c 0
 383.7890625 794.465820312 425.456054688 800 468.75 800 c 0
 512.043945312 800 553.547851562 794.465820312 593.26171875 783.3984375 c 0
 633.299804688 772.331054688 670.737304688 756.54296875 705.568359375 736.03515625 c 0
 740.400390625 715.853515625 771.974609375 691.438476562 800.293945312 662.79296875 c 0
 828.9375 634.47265625 853.349609375 602.896484375 873.537109375 568.06640625 c 0
 894.043945312 533.235351562 909.831054688 495.80078125 920.900390625 455.76171875 c 0
 931.96875 416.047851562 937.5 374.543945312 937.5 331.25 c 0
 937.5 287.956054688 931.806640625 246.2890625 920.412109375 206.25 c 0
 909.34375 166.537109375 893.556640625 129.262695312 873.049804688 94.431640625 c 0
 852.862304688 59.931640625 828.450195312 28.349609375 799.806640625 -0.2939453125 c 0
 771.487304688 -28.6123046875 739.90625 -53.025390625 705.075195312 -73.537109375 c 0
 670.575195312 -93.71875 633.299804688 -109.505859375 593.26171875 -120.900390625 c 0
 553.22265625 -131.96875 511.71875 -137.5 468.75 -137.5 c 0
 425.456054688 -137.5 383.7890625 -131.96875 343.75 -120.900390625 c 0
 303.7109375 -109.831054688 266.276367188 -94.2060546875 231.4453125 -74.025390625 c 0
 196.940429688 -53.5126953125 165.364257812 -29.099609375 136.71875 -0.78125 c 0
 108.3984375 27.8623046875 83.984375 59.4375 63.4765625 93.943359375 c 0
 43.2939453125 128.775390625 27.6689453125 166.212890625 16.6015625 206.25 c 0
 5.5341796875 246.2890625 0 287.956054688 0 331.25 c 0
875 331.25 m 0
 875 368.684570312 870.119140625 404.655273438 860.349609375 439.16015625 c 0
 850.912109375 473.990234375 837.237304688 506.379882812 819.337890625 536.328125 c 0
 801.755859375 566.6015625 780.599609375 593.9453125 755.862304688 618.359375 c 0
 731.443359375 643.098632812 704.099609375 664.2578125 673.825195312 681.8359375 c 0
 643.880859375 699.739257812 611.490234375 713.411132812 576.66015625 722.8515625 c 0
 542.155273438 732.6171875 506.184570312 737.5 468.75 737.5 c 0
 431.315429688 737.5 395.182617188 732.6171875 360.3515625 722.8515625 c 0
 325.846679688 713.411132812 293.45703125 699.739257812 263.18359375 681.8359375 c 0
 233.235351562 664.2578125 205.891601562 643.098632812 181.15234375 618.359375 c 0
 156.73828125 593.9453125 135.579101562 566.6015625 117.67578125 536.328125 c 0
 100.09765625 506.379882812 86.42578125 473.990234375 76.66015625 439.16015625 c 0
 67.2197265625 404.655273438 62.5 368.684570312 62.5 331.25 c 0
 62.5 293.815429688 67.2197265625 257.682617188 76.66015625 222.8515625 c 0
 86.42578125 188.346679688 100.09765625 155.956054688 117.67578125 125.681640625 c 0
 135.25390625 95.7373046875 156.412109375 68.3935546875 181.15234375 43.650390625 c 0
 205.891601562 18.912109375 233.235351562 -2.244140625 263.18359375 -19.8251953125 c 0
 293.45703125 -37.400390625 325.846679688 -51.0751953125 360.3515625 -60.837890625 c 0
 395.182617188 -70.28125 431.315429688 -75 468.75 -75 c 0
 506.184570312 -75 542.155273438 -70.28125 576.66015625 -60.837890625 c 0
 611.490234375 -51.0751953125 643.880859375 -37.400390625 673.825195312 -19.8251953125 c 0
 704.099609375 -2.244140625 731.606445312 18.912109375 756.349609375 43.650390625 c 0
 781.087890625 68.3935546875 802.244140625 95.7373046875 819.825195312 125.681640625 c 0
 837.400390625 155.956054688 850.912109375 188.346679688 860.349609375 222.8515625 c 0
 870.119140625 257.682617188 875 293.815429688 875 331.25 c 0
EndSplineSet
Validated: 1
EndChar

StartChar: properties_o
Encoding: 50 57394 17
Width: 1000
Flags: H
LayerCount: 2
Fore
SplineSet
421.875 518.75 m 0
 421.875 531.770507812 426.432617188 542.838867188 435.546875 551.953125 c 0
 444.661132812 561.067382812 455.729492188 565.625 468.75 565.625 c 0
 481.770507812 565.625 492.838867188 561.067382812 501.953125 551.953125 c 0
 511.067382812 542.838867188 515.625 531.770507812 515.625 518.75 c 0
 515.625 505.729492188 511.067382812 494.661132812 501.953125 485.546875 c 0
 492.838867188 476.432617188 481.770507812 471.875 468.75 471.875 c 0
 455.729492188 471.875 444.661132812 476.432617188 435.546875 485.546875 c 0
 426.432617188 494.661132812 421.875 505.729492188 421.875 518.75 c 0
437.5 143.75 m 2
 437.5 393.75 l 2
 437.5 402.213867188 440.592773438 409.537109375 446.77734375 415.72265625 c 0
 452.962890625 421.907226562 460.286132812 425 468.75 425 c 0
 477.213867188 425 484.537109375 421.907226562 490.72265625 415.72265625 c 0
 496.907226562 409.537109375 500 402.213867188 500 393.75 c 2
 500 143.75 l 2
 500 135.287109375 496.907226562 127.962890625 490.72265625 121.775390625 c 0
 484.537109375 115.59375 477.213867188 112.5 468.75 112.5 c 0
 460.286132812 112.5 452.962890625 115.59375 446.77734375 121.775390625 c 0
 440.592773438 127.962890625 437.5 135.287109375 437.5 143.75 c 2
EndSplineSet
Validated: 1
EndChar

StartChar: newfolder_b
Encoding: 51 57395 18
Width: 1000
Flags: HW
LayerCount: 2
Fore
SplineSet
156.25 800 m 2
 265.625 800 l 2
 334.478515625 800 399.313476562 767.58203125 440.625 712.5 c 2
 468.75 675 l 1
 843.75 675 l 2
 930.043945312 675 1000 605.043945312 1000 518.75 c 2
 1000 278.89453125 l 1
 992.34375 289.79296875 977.568359375 306.739257812 968.8125 316.559570312 c 0
 964.181640625 321.75390625 959.9375 327.26953125 956.200195312 333.139648438 c 2
 954.293945312 336.1328125 l 2
 943.325195312 353.352539062 937.5 373.344726562 937.5 393.76171875 c 1
 937.5 393.76171875 l 1
 937.494140625 445.532226562 895.525390625 487.5 843.75 487.5 c 2
 812.5 487.5 l 1
 477.190429688 487.5 l 2
 467.916015625 487.5 459.12109375 483.380859375 453.18359375 476.255859375 c 2
 410.469726562 425 l 1
 156.25 425 l 2
 115.430664062 425 75.3701171875 398.912109375 62.5 362.5 c 2
 62.5 -12.025390625 l 1
 64.396484375 -35.119140625 l 2
 66.5380859375 -61.193359375 69.955078125 -88.78125 87.85546875 -107.869140625 c 0
 104.958984375 -126.106445312 129.2734375 -137.5 156.25 -137.5 c 2
 453.583984375 -137.5 l 2
 460.528320312 -145.918945312 467.899414062 -154.037109375 475.681640625 -161.818359375 c 0
 489.790039062 -175.924804688 504.999023438 -188.681640625 521.10546875 -200 c 1
 156.25 -200 l 2
 69.9560546875 -200 0 -130.043945312 0 -43.75 c 2
 0 643.75 l 2
 0 730.043945312 69.9560546875 800 156.25 800 c 2
843.75 612.5 m 2
 437.5 612.5 l 1
 390.625 675 l 2
 361.116210938 714.344726562 314.805664062 737.5 265.625 737.5 c 2
 156.25 737.5 l 2
 104.47265625 737.5 62.5 695.52734375 62.5 643.75 c 2
 62.5 456.26171875 l 1
 88.6142578125 475.876953125 121.075195312 487.5 156.25 487.5 c 2
 381.197265625 487.5 l 1
 405.168945312 516.267578125 l 2
 422.981445312 537.641601562 449.3671875 550 477.190429688 550 c 2
 843.75 550 l 2
 878.924804688 550 911.387695312 538.375976562 937.5 518.76171875 c 1
 937.494140625 570.532226562 895.525390625 612.5 843.75 612.5 c 2
EndSplineSet
Validated: 1
EndChar

StartChar: newfolder_o
Encoding: 52 57396 19
Width: 1000
Flags: HW
LayerCount: 2
Fore
SplineSet
917.625 -117.625 m 0
 864.880859375 -170.369140625 793.34375 -200 718.75 -200 c 0
 644.15625 -200 572.62109375 -170.369140625 519.875976562 -117.625 c 0
 467.131835938 -64.880859375 437.5 6.65625 437.5 81.25 c 0
 437.5 155.84375 467.131835938 227.37890625 519.875976562 280.124023438 c 0
 572.62109375 332.868164062 644.15625 362.5 718.75 362.5 c 0
 793.34375 362.5 864.880859375 332.868164062 917.625 280.124023438 c 0
 970.369140625 227.37890625 1000 155.84375 1000 81.25 c 0
 1000 6.65625 970.369140625 -64.880859375 917.625 -117.625 c 0
750 206.25 m 2
 750 223.508789062 736.005859375 237.5 718.75 237.5 c 0
 701.494140625 237.5 687.5 223.508789062 687.5 206.25 c 2
 687.5 112.5 l 1
 593.75 112.5 l 2
 576.491210938 112.5 562.5 98.505859375 562.5 81.25 c 0
 562.5 63.994140625 576.491210938 50 593.75 50 c 2
 687.5 50 l 1
 687.5 -43.75 l 2
 687.5 -61.005859375 701.494140625 -75 718.75 -75 c 0
 736.005859375 -75 750 -61.005859375 750 -43.75 c 2
 750 50 l 1
 843.75 50 l 2
 861.005859375 50 875 63.994140625 875 81.25 c 0
 875 98.505859375 861.005859375 112.5 843.75 112.5 c 2
 750 112.5 l 1
 750 206.25 l 2
EndSplineSet
Validated: 1
EndChar

StartChar: delete_b
Encoding: 53 57397 20
Width: 1000
Flags: H
LayerCount: 2
Fore
SplineSet
653.09375 675 m 2
 937.5 675 l 2
 945.787109375 675 953.737304688 671.70703125 959.599609375 665.846679688 c 0
 965.456054688 659.987304688 968.75 652.038085938 968.75 643.75 c 0
 968.75 635.461914062 965.456054688 627.512695312 959.599609375 621.653320312 c 0
 953.737304688 615.79296875 945.787109375 612.5 937.5 612.5 c 2
 902.875 612.5 l 1
 821.875 -89.375 l 2
 818.349609375 -119.837890625 803.75 -147.9375 780.849609375 -168.337890625 c 0
 757.950195312 -188.737304688 728.356445312 -200.005859375 697.6875 -200 c 2
 302.3125 -200 l 2
 271.646484375 -200.005859375 242.049804688 -188.737304688 219.151367188 -168.337890625 c 0
 196.252929688 -147.9375 181.651367188 -119.837890625 178.125 -89.375 c 2
 97.0625 612.5 l 1
 62.5 612.5 l 2
 55.185546875 612.497070312 48.1025390625 615.060546875 42.4833984375 619.743164062 c 0
 36.865234375 624.42578125 33.06640625 630.930664062 31.75 638.125 c 2
 31.25 643.75 l 2
 31.25 652.038085938 34.5419921875 659.987304688 40.4033203125 665.846679688 c 0
 46.263671875 671.70703125 54.2119140625 675 62.5 675 c 2
 346.90625 675 l 2
 352.98828125 704.794921875 367.690429688 732.411132812 389.514648438 754.235351562 c 0
 418.81640625 783.538085938 458.559570312 800 500 800 c 0
 541.440429688 800 581.18359375 783.538085938 610.485351562 754.235351562 c 0
 632.3125 732.411132812 647.012695312 704.794921875 653.09375 675 c 2
500 737.5 m 0
 475.13671875 737.5 451.290039062 727.622070312 433.708984375 710.041015625 c 0
 423.727539062 700.059570312 416.229492188 688.059570312 411.612304688 675 c 1
 588.387695312 675 l 1
 583.770507812 688.059570312 576.272460938 700.059570312 566.291015625 710.041015625 c 0
 548.709960938 727.622070312 524.86328125 737.5 500 737.5 c 0
160.0625 612.5 m 1
 240.25 -82.1875 l 2
 242.012695312 -97.412109375 249.30859375 -111.462890625 260.750976562 -121.65625 c 0
 272.193359375 -131.856445312 286.985351562 -137.494140625 302.3125 -137.5 c 2
 697.6875 -137.5 l 2
 713.012695312 -137.494140625 727.806640625 -131.856445312 739.25 -121.65625 c 0
 750.693359375 -111.462890625 757.987304688 -97.412109375 759.75 -82.1875 c 2
 839.875 612.5 l 1
 160.0625 612.5 l 1
EndSplineSet
Validated: 33
EndChar

StartChar: delete_o
Encoding: 54 57398 21
Width: 1000
Flags: HW
LayerCount: 2
Fore
SplineSet
406.25 425 m 4
 414.538085938 425 422.487304688 421.70703125 428.346679688 415.846679688 c 4
 434.20703125 409.987304688 437.5 402.038085938 437.5 393.75 c 6
 437.5 81.25 l 6
 437.5 72.962890625 434.20703125 65.0126953125 428.346679688 59.150390625 c 4
 422.487304688 53.2939453125 414.538085938 50 406.25 50 c 4
 397.961914062 50 390.012695312 53.2939453125 384.153320312 59.150390625 c 4
 378.29296875 65.0126953125 375 72.962890625 375 81.25 c 6
 375 393.75 l 6
 375 402.038085938 378.29296875 409.987304688 384.153320312 415.846679688 c 4
 390.012695312 421.70703125 397.961914062 425 406.25 425 c 4
593.75 425 m 4
 602.038085938 425 609.987304688 421.70703125 615.846679688 415.846679688 c 4
 621.70703125 409.987304688 625 402.038085938 625 393.75 c 6
 625 81.25 l 6
 625 72.962890625 621.70703125 65.0126953125 615.846679688 59.150390625 c 4
 609.987304688 53.2939453125 602.038085938 50 593.75 50 c 4
 585.461914062 50 577.512695312 53.2939453125 571.653320312 59.150390625 c 4
 565.79296875 65.0126953125 562.5 72.962890625 562.5 81.25 c 6
 562.5 393.75 l 6
 562.5 402.038085938 565.79296875 409.987304688 571.653320312 415.846679688 c 4
 577.512695312 421.70703125 585.461914062 425 593.75 425 c 4
EndSplineSet
Validated: 1
EndChar

StartChar: new_b
Encoding: 55 57399 22
Width: 1000
Flags: H
LayerCount: 2
Fore
SplineSet
500 -137.5 m 4
 741.625 -137.5 937.5 58.375 937.5 300 c 4
 937.5 541.624023438 741.625 737.5 500 737.5 c 4
 258.375976562 737.5 62.5 541.624023438 62.5 300 c 4
 62.5 58.375 258.375976562 -137.5 500 -137.5 c 4
500 -200 m 4
 223.857421875 -200 0 23.8564453125 0 300 c 4
 0 576.142578125 223.857421875 800 500 800 c 4
 776.143554688 800 1000 576.142578125 1000 300 c 4
 1000 23.8564453125 776.143554688 -200 500 -200 c 4
EndSplineSet
Validated: 1
EndChar

StartChar: new_o
Encoding: 56 57400 23
Width: 1000
Flags: H
LayerCount: 2
Fore
SplineSet
250 300 m 0
 250 317.258789062 263.991210938 331.25 281.25 331.25 c 2
 468.75 331.25 l 1
 468.75 518.75 l 2
 468.75 536.008789062 482.741210938 550 500 550 c 0
 517.258789062 550 531.25 536.008789062 531.25 518.75 c 2
 531.25 331.25 l 1
 718.75 331.25 l 2
 736.005859375 331.25 750 317.258789062 750 300 c 0
 750 282.741210938 736.005859375 268.75 718.75 268.75 c 2
 531.25 268.75 l 1
 531.25 81.25 l 2
 531.25 63.994140625 517.258789062 50 500 50 c 0
 482.741210938 50 468.75 63.994140625 468.75 81.25 c 2
 468.75 268.75 l 1
 281.25 268.75 l 2
 263.991210938 268.75 250 282.741210938 250 300 c 0
EndSplineSet
Validated: 1
EndChar

StartChar: branch_b
Encoding: 57 57401 24
Width: 1000
Flags: H
LayerCount: 2
Fore
SplineSet
353.708007812 430.916992188 m 0
 382.369140625 337.047851562 469.666992188 268.75 572.916992188 268.75 c 2
 586.6875 268.75 l 1
 586.6875 206.25 l 1
 572.916992188 206.25 l 2
 479.958007812 206.25 397.159179688 249.737304688 343.75 317.479492188 c 1
 343.75 163.291992188 l 1
 281.25 163.291992188 l 1
 281.25 428.35546875 l 1025
281.25 428.35546875 m 1
 281.25 439.061523438 l 1
 353.708007812 439.061523438 l 1
 353.708007812 428.35546875 l 1
 281.25 428.35546875 l 1
586.6875 206.25 m 1
 586.6875 268.75 l 1
 602.213867188 268.75 l 1
 602.213867188 206.25 l 1
 586.6875 206.25 l 1
EndSplineSet
Validated: 3
EndChar

StartChar: branch_o
Encoding: 58 57402 25
Width: 1000
Flags: H
LayerCount: 2
Fore
SplineSet
313.420898438 428.000976562 m 0
 217.512695312 428.03515625 166.666992188 501.018554688 166.666992188 570.833007812 c 0
 166.666992188 651.375 231.958007812 716.666992188 312.5 716.666992188 c 0
 393.041992188 716.666992188 458.333007812 651.375 458.333007812 570.833007812 c 0
 458.333007812 504.6015625 397.5390625 428.056640625 313.420898438 428.000976562 c 0
584.083007812 231.640625 m 0
 580.813476562 321.905273438 659.349609375 383.333007812 729.166992188 383.333007812 c 0
 809.708007812 383.333007812 875 318.041992188 875 237.5 c 0
 875 156.958007812 809.708007812 91.6669921875 729.166992188 91.6669921875 c 0
 659.349609375 91.6669921875 584.719726562 147.88671875 584.083007812 231.640625 c 0
314.748046875 171.645507812 m 0
 393.622070312 170.6875 458.333007812 98.9833984375 458.333007812 29.1669921875 c 0
 458.333007812 -51.375 393.041992188 -116.666992188 312.5 -116.666992188 c 0
 231.958007812 -116.666992188 166.666992188 -51.375 166.666992188 29.1669921875 c 0
 166.666992188 98.9833984375 236.202148438 171.66015625 314.748046875 171.645507812 c 0
312.5 654.166992188 m 0
 266.4765625 654.166992188 229.166992188 616.857421875 229.166992188 570.833007812 c 0
 229.166992188 524.809570312 266.4765625 487.5 312.5 487.5 c 0
 358.5234375 487.5 395.833007812 524.809570312 395.833007812 570.833007812 c 0
 395.833007812 616.857421875 358.5234375 654.166992188 312.5 654.166992188 c 0
312.5 112.5 m 0
 266.4765625 112.5 229.166992188 75.19140625 229.166992188 29.1669921875 c 0
 229.166992188 -16.8583984375 266.4765625 -54.1669921875 312.5 -54.1669921875 c 0
 358.5234375 -54.1669921875 395.833007812 -16.8583984375 395.833007812 29.1669921875 c 0
 395.833007812 75.19140625 358.5234375 112.5 312.5 112.5 c 0
645.833007812 237.5 m 0
 645.833007812 191.474609375 683.141601562 154.166992188 729.166992188 154.166992188 c 0
 775.19140625 154.166992188 812.5 191.474609375 812.5 237.5 c 0
 812.5 283.525390625 775.19140625 320.833007812 729.166992188 320.833007812 c 0
 683.141601562 320.833007812 645.833007812 283.525390625 645.833007812 237.5 c 0
EndSplineSet
Validated: 33
EndChar

StartChar: pane_b
Encoding: 59 57403 26
Width: 1000
Flags: HW
LayerCount: 2
Back
Fore
SplineSet
250 737.5 m 2
 750 737.5 l 2
 853.556640625 737.5 937.5 653.552734375 937.5 550 c 1
 875 550 l 1
 875 619.03515625 819.037109375 675 750 675 c 2
 250 675 l 2
 180.96484375 675 125 619.03515625 125 550 c 2
 125 487.5 l 1
 500 487.5 l 1
 500 425 l 1
 125 425 l 1
 125 50 l 2
 125 -19.037109375 180.96484375 -75 250 -75 c 2
 500 -75 l 1
 500 -137.5 l 1
 250 -137.5 l 2
 146.447265625 -137.5 62.5 -53.556640625 62.5 50 c 2
 62.5 550 l 2
 62.5 653.552734375 146.447265625 737.5 250 737.5 c 2
EndSplineSet
Validated: 1
EndChar

StartChar: pane_o
Encoding: 60 57404 27
Width: 1000
Flags: HW
LayerCount: 2
Fore
SplineSet
937.5 487.5 m 1
 937.5 50 l 2
 937.5 -53.556640625 853.556640625 -137.5 750 -137.5 c 2
 562.5 -137.5 l 1
 562.5 487.5 l 1
 937.5 487.5 l 1
EndSplineSet
Validated: 1
EndChar

StartChar: cut_b
Encoding: 61 57405 28
Width: 1000
Flags: H
LayerCount: 2
Fore
SplineSet
462.73828125 450.418945312 m 1
 425.477539062 393.041992188 l 1
 192.544921875 751.7265625 l 2
 183.145507812 766.201171875 187.259765625 785.5546875 201.733398438 794.955078125 c 0
 216.208007812 804.354492188 235.5625 800.241210938 244.961914062 785.766601562 c 2
 462.73828125 450.418945312 l 1
537.26171875 450.418945312 m 1
 755.037109375 785.766601562 l 2
 764.4375 800.241210938 783.793945312 804.354492188 798.268554688 794.955078125 c 0
 812.744140625 785.5546875 816.856445312 766.201171875 807.456054688 751.7265625 c 2
 574.5234375 393.041992188 l 1
 537.26171875 450.418945312 l 1
EndSplineSet
Validated: 33
EndChar

StartChar: cut_o
Encoding: 62 57406 29
Width: 1000
Flags: H
LayerCount: 2
Fore
SplineSet
500.002929688 362.5 m 0
 510.452148438 362.5 520.208984375 357.278320312 526.004882812 348.583984375 c 2
 657.84375 150.825195312 l 2
 685.056640625 166.21875 716.505859375 175 750 175 c 0
 853.556640625 175 937.5 91.056640625 937.5 -12.5 c 0
 937.5 -116.056640625 853.556640625 -200 750 -200 c 0
 646.443359375 -200 562.5 -116.056640625 562.5 -12.5 c 0
 562.5 34.912109375 580.099609375 78.21875 609.122070312 111.237304688 c 2
 500.002929688 274.913085938 l 1
 390.881835938 111.231445312 l 2
 419.90234375 78.212890625 437.5 34.912109375 437.5 -12.5 c 0
 437.5 -116.056640625 353.552734375 -200 250 -200 c 0
 146.447265625 -200 62.5 -116.056640625 62.5 -12.5 c 0
 62.5 91.056640625 146.447265625 175 250 175 c 0
 283.498046875 175 314.9453125 166.212890625 342.162109375 150.825195312 c 2
 474.001953125 348.583984375 l 2
 479.797851562 357.278320312 489.5546875 362.5 500.002929688 362.5 c 0
375 -12.5 m 0
 375 56.537109375 319.03515625 112.5 250 112.5 c 0
 180.96484375 112.5 125 56.537109375 125 -12.5 c 0
 125 -81.537109375 180.96484375 -137.5 250 -137.5 c 0
 319.03515625 -137.5 375 -81.537109375 375 -12.5 c 0
875 -12.5 m 0
 875 56.537109375 819.037109375 112.5 750 112.5 c 0
 680.962890625 112.5 625 56.537109375 625 -12.5 c 0
 625 -81.537109375 680.962890625 -137.5 750 -137.5 c 0
 819.037109375 -137.5 875 -81.537109375 875 -12.5 c 0
EndSplineSet
Validated: 1
EndChar

StartChar: NameMe.63
Encoding: 63 -1 30
Width: 1000
Flags: H
LayerCount: 2
Fore
SplineSet
405.50390625 603.391601562 m 1
 512 515.328125 l 1
 841.727539062 515.328125 l 2
 866.3046875 515.328125 887.467773438 507.4765625 905.215820312 491.776367188 c 0
 922.96484375 476.075195312 933.888671875 455.935546875 937.985351562 431.360351562 c 1
 937.985351562 419.072265625 l 1
 937.985351562 34.048828125 l 2
 937.985351562 9.47265625 929.452148438 -12.03125 912.384765625 -30.462890625 c 0
 895.318359375 -48.8955078125 874.497070312 -59.4755859375 849.919921875 -62.20703125 c 2
 182.2734375 -62.20703125 l 2
 156.33203125 -62.20703125 134.14453125 -53.33203125 115.712890625 -35.5830078125 c 0
 97.28125 -17.833984375 87.3818359375 3.3291015625 86.0166015625 27.9052734375 c 2
 86.0166015625 525.569335938 l 2
 86.0166015625 550.14453125 94.5498046875 571.649414062 111.6171875 590.081054688 c 0
 128.68359375 608.512695312 149.504882812 619.09375 174.081054688 621.825195312 c 2
 350.208984375 621.825195312 l 2
 370.689453125 621.825195312 389.12109375 615.680664062 405.504882812 603.392578125 c 1
 405.50390625 603.391601562 l 1
704.51171875 3.328125 m 1
 841.727539062 3.328125 l 2
 850 3.328125 857.088867188 5.716796875 863.232421875 10.49609375 c 0
 869.375976562 15.275390625 873.130859375 21.759765625 874.497070312 29.9521484375 c 2
 874.497070312 419.072265625 l 2
 874.497070312 427.263671875 871.765625 434.090820312 866.3046875 439.551757812 c 0
 860.84375 445.012695312 855.000976562 449.791992188 847.873046875 449.791992188 c 2
 768.000976562 449.791992188 l 1
 512.000976562 449.791992188 l 1
 411.6484375 365.82421875 l 2
 396.62890625 353.536132812 378.879882812 346.02734375 358.400390625 343.295898438 c 2
 149.504882812 343.295898438 l 1
 149.504882812 34.0478515625 l 2
 149.504882812 25.8564453125 152.236328125 19.029296875 157.697265625 13.568359375 c 0
 163.158203125 8.107421875 169.000976562 3.328125 176.12890625 3.328125 c 2
 704.512695312 3.328125 l 1
 704.51171875 3.328125 l 1
182.272460938 556.288085938 m 1
 174.080078125 556.288085938 166.911132812 553.899414062 160.767578125 549.120117188 c 0
 154.624023438 544.340820312 150.869140625 537.856445312 149.502929688 529.6640625 c 2
 149.502929688 408.83203125 l 1
 350.20703125 406.784179688 l 2
 355.66796875 408.149414062 361.129882812 410.197265625 366.590820312 412.927734375 c 2
 450.55859375 482.559570312 l 1
 370.6875 550.143554688 l 2
 366.590820312 554.240234375 361.129882812 556.288085938 354.302734375 556.288085938 c 2
 350.20703125 556.288085938 l 1
 182.271484375 556.288085938 l 1
 182.272460938 556.288085938 l 1
EndSplineSet
Validated: 5
EndChar

StartChar: NameMe.64
Encoding: 64 -1 31
Width: 1000
Flags: H
LayerCount: 2
Fore
SplineSet
704 450 m 1
 768 449.791992188 l 1
 768 355.583984375 l 2
 768 346.000976562 764.927734375 338.17578125 758.784179688 332.032226562 c 0
 752.639648438 325.887695312 744.7890625 322.81640625 735.232421875 322.81640625 c 2
 704.51171875 322.81640625 l 1
 704.51171875 216.3203125 l 1
 714.751953125 216.3203125 l 2
 722.944335938 216.3203125 730.453125 213.248046875 737.280273438 207.103515625 c 0
 744.107421875 200.959960938 747.51953125 193.451171875 747.51953125 184.576171875 c 0
 747.51953125 175.701171875 744.107421875 168.192382812 737.280273438 162.047851562 c 0
 730.453125 155.904296875 722.944335938 152.83203125 714.751953125 152.83203125 c 2
 704.51171875 152.83203125 l 1
 704.51171875 87.2958984375 l 1
 714.751953125 87.2958984375 l 2
 722.944335938 87.2958984375 730.453125 84.2236328125 737.280273438 78.080078125 c 0
 744.107421875 71.935546875 747.51953125 64.4267578125 747.51953125 55.5517578125 c 0
 747.51953125 46.6767578125 744.107421875 39.16796875 737.280273438 33.0244140625 c 0
 730.453125 26.8798828125 722.944335938 23.8076171875 714.751953125 23.8076171875 c 2
 704.51171875 23.8076171875 l 1
 704.51171875 3.328125 l 1
 638.975585938 3.328125 l 1
 638.975585938 87.2958984375 l 1
 628.736328125 87.2958984375 l 2
 620.543945312 87.2958984375 613.375976562 90.3681640625 607.232421875 96.51171875 c 0
 601.087890625 102.65625 598.015625 110.165039062 598.015625 119.040039062 c 0
 598.015625 127.915039062 601.087890625 135.764648438 607.232421875 142.591796875 c 0
 613.375976562 149.418945312 620.543945312 152.83203125 628.736328125 152.83203125 c 2
 638.975585938 152.83203125 l 1
 638.975585938 216.3203125 l 1
 628.736328125 216.3203125 l 2
 620.543945312 216.3203125 613.375976562 219.391601562 607.232421875 225.536132812 c 0
 601.087890625 231.6796875 598.015625 239.189453125 598.015625 248.064453125 c 0
 598.015625 256.939453125 601.087890625 264.448242188 607.232421875 270.591796875 c 0
 613.375976562 276.736328125 620.543945312 279.807617188 628.736328125 279.807617188 c 2
 638.975585938 279.807617188 l 1
 638.975585938 322.81640625 l 1
 608.255859375 322.81640625 l 2
 598.69921875 322.81640625 590.84765625 325.887695312 584.704101562 332.032226562 c 0
 578.559570312 338.17578125 575.48828125 346.02734375 575.48828125 355.583984375 c 2
 575.48828125 449.791992188 l 1
 639 450 l 1
 638.975585938 386.303710938 l 1
 704.51171875 386.303710938 l 1
 704 450 l 1
EndSplineSet
Validated: 1
EndChar

StartChar: NameMe.65
Encoding: 65 -1 32
Width: 1000
Flags: H
LayerCount: 2
Fore
SplineSet
299.0078125 705.791992188 m 1
 305.834960938 705.791992188 311.978515625 704.084960938 317.440429688 700.671875 c 0
 322.901367188 697.258789062 326.315429688 692.138671875 327.6796875 685.311523438 c 2
 464.896484375 318.719726562 l 1
 430.080078125 228.608398438 l 1
 403.456054688 300.288085938 l 1
 194.560546875 300.288085938 l 1
 147.45703125 173.310546875 l 2
 144.725585938 165.119140625 139.264648438 158.974609375 131.073242188 154.87890625 c 0
 122.880859375 150.783203125 114.689453125 150.442382812 106.497070312 153.85546875 c 0
 98.3046875 157.267578125 92.1611328125 162.73046875 88.0654296875 170.239257812 c 0
 83.96875 177.748046875 83.96875 186.282226562 88.0654296875 195.838867188 c 2
 268.2890625 685.311523438 l 2
 271.01953125 692.138671875 275.116210938 697.258789062 280.577148438 700.671875 c 0
 286.038085938 704.084960938 292.181640625 705.791992188 299.008789062 705.791992188 c 1
 299.0078125 705.791992188 l 1
219.135742188 365.82421875 m 1
 378.879882812 365.82421875 l 1
 299.0078125 582.912109375 l 1
 219.135742188 365.82421875 l 1
EndSplineSet
Validated: 5
EndChar

StartChar: NameMe.66
Encoding: 66 -1 33
Width: 1000
Flags: H
LayerCount: 2
Fore
SplineSet
589.82421875 515.328125 m 2
 595.28515625 528.981445312 605.18359375 535.807617188 619.51953125 535.807617188 c 0
 633.856445312 535.807617188 643.754882812 528.981445312 649.215820312 515.328125 c 2
 884.736328125 -82.689453125 l 1
 907.263671875 -82.689453125 l 2
 915.456054688 -82.689453125 922.624023438 -85.7607421875 928.767578125 -91.9052734375 c 0
 934.912109375 -98.048828125 937.984375 -105.556640625 937.984375 -114.431640625 c 0
 937.984375 -123.306640625 934.912109375 -130.817382812 928.767578125 -136.959960938 c 0
 922.624023438 -143.103515625 915.456054688 -146.17578125 907.263671875 -146.17578125 c 2
 800.767578125 -146.17578125 l 2
 791.2109375 -146.17578125 783.360351562 -143.103515625 777.215820312 -136.959960938 c 0
 771.072265625 -130.81640625 768 -123.306640625 768 -114.431640625 c 0
 768 -105.556640625 771.072265625 -98.0478515625 777.215820312 -91.9052734375 c 0
 783.360351562 -85.7607421875 791.2109375 -82.689453125 800.767578125 -82.689453125 c 2
 817.15234375 -82.689453125 l 1
 765.952148438 44.2880859375 l 1
 471.040039062 44.2880859375 l 1
 419.83984375 -82.689453125 l 1
 438.272460938 -82.689453125 l 2
 446.463867188 -82.689453125 453.631835938 -85.7607421875 459.776367188 -91.9052734375 c 0
 465.919921875 -98.048828125 468.9921875 -105.556640625 468.9921875 -114.431640625 c 0
 468.9921875 -123.306640625 465.919921875 -130.817382812 459.776367188 -136.959960938 c 0
 453.631835938 -143.103515625 446.463867188 -146.17578125 438.272460938 -146.17578125 c 2
 329.727539062 -146.17578125 l 2
 321.536132812 -146.17578125 314.368164062 -143.103515625 308.223632812 -136.959960938 c 0
 302.080078125 -130.81640625 299.0078125 -123.306640625 299.0078125 -114.431640625 c 0
 299.0078125 -105.556640625 302.080078125 -98.0478515625 308.223632812 -91.9052734375 c 0
 314.368164062 -85.7607421875 321.536132812 -82.689453125 329.727539062 -82.689453125 c 2
 352.255859375 -82.689453125 l 1
 589.82421875 515.328125 l 2
741.375976562 109.82421875 m 1
 618.49609375 417.024414062 l 1
 495.616210938 109.82421875 l 1
 741.375976562 109.82421875 l 1
EndSplineSet
Validated: 1
EndChar

StartChar: NameMe.67
Encoding: 67 -1 34
Width: 1000
Flags: H
LayerCount: 2
Fore
SplineSet
870.400390625 -64.255859375 m 2
 879.95703125 -69.716796875 883.37109375 -77.568359375 880.639648438 -87.8076171875 c 0
 877.909179688 -98.0478515625 871.083007812 -103.16796875 860.16015625 -103.16796875 c 2
 169.983398438 -103.16796875 l 2
 159.059570312 -103.16796875 149.162109375 -99.072265625 140.287109375 -90.8798828125 c 0
 131.412109375 -82.6884765625 127.658203125 -73.130859375 129.0234375 -62.2080078125 c 2
 129.0234375 328.959960938 l 2
 129.0234375 337.15234375 132.435546875 343.295898438 139.262695312 347.391601562 c 0
 146.08984375 351.48828125 152.916015625 351.48828125 159.743164062 347.391601562 c 2
 870.400390625 -64.255859375 l 2
700.416015625 -39.6796875 m 1
 192.51171875 253.182617188 l 1
 192.51171875 -39.6796875 l 1
 700.416015625 -39.6796875 l 1
EndSplineSet
Validated: 1
EndChar

StartChar: NameMe.68
Encoding: 68 -1 35
Width: 1000
Flags: H
LayerCount: 2
Fore
SplineSet
641.024414062 578.81640625 m 1
 651.263671875 578.81640625 l 1
 651.263671875 578.81640625 l 1
 699.05078125 577.451171875 744.107421875 564.48046875 786.431640625 539.904296875 c 0
 819.200195312 520.7890625 845.483398438 495.872070312 865.280273438 465.15234375 c 0
 885.077148438 434.431640625 894.975585938 400.981445312 894.975585938 364.798828125 c 0
 894.975585938 328.618164062 885.077148438 295.166992188 865.280273438 264.447265625 c 0
 845.483398438 233.7265625 818.516601562 208.809570312 784.383789062 189.6953125 c 0
 739.328125 163.75390625 691.541015625 151.465820312 641.024414062 152.831054688 c 2
 618.49609375 152.831054688 l 2
 610.303710938 152.831054688 602.794921875 155.903320312 595.967773438 162.046875 c 0
 589.140625 168.19140625 585.727539062 175.700195312 585.727539062 184.575195312 c 0
 585.727539062 193.450195312 589.140625 200.958984375 595.967773438 207.1015625 c 0
 602.794921875 213.24609375 610.303710938 216.318359375 618.49609375 216.318359375 c 2
 641.024414062 216.318359375 l 2
 680.619140625 216.318359375 716.799804688 225.193359375 749.568359375 242.942382812 c 0
 775.508789062 256.594726562 795.6484375 274.002929688 809.984375 295.166015625 c 0
 824.3203125 316.329101562 831.48828125 339.5390625 831.48828125 364.797851562 c 0
 831.48828125 390.056640625 824.3203125 413.266601562 809.984375 434.4296875 c 0
 795.6484375 455.592773438 775.508789062 473.000976562 749.568359375 486.654296875 c 0
 718.165039062 504.403320312 684.71484375 513.9609375 649.215820312 515.326171875 c 2
 344.064453125 515.326171875 l 1
 417.791992188 441.59765625 l 2
 423.252929688 434.771484375 426.325195312 427.26171875 427.0078125 419.0703125 c 0
 427.69140625 410.877929688 425.30078125 403.709960938 419.83984375 397.56640625 c 0
 414.37890625 391.421875 407.2109375 387.666992188 398.3359375 386.301757812 c 0
 389.4609375 384.9375 381.611328125 386.985351562 374.784179688 392.446289062 c 2
 243.711914062 523.517578125 l 2
 238.250976562 530.344726562 235.51953125 538.1953125 235.51953125 547.0703125 c 0
 235.51953125 555.9453125 238.250976562 563.11328125 243.711914062 568.57421875 c 2
 374.784179688 699.646484375 l 2
 381.611328125 705.107421875 389.120117188 707.497070312 397.311523438 706.814453125 c 0
 405.50390625 706.131835938 412.331054688 702.376953125 417.791992188 695.549804688 c 0
 423.252929688 688.72265625 425.984375 681.213867188 425.984375 673.022460938 c 0
 425.984375 664.830078125 423.252929688 658.002929688 417.791992188 652.541992188 c 2
 344.064453125 578.814453125 l 1
 641.024414062 578.814453125 l 1
 641.024414062 578.81640625 l 1
EndSplineSet
Validated: 37
EndChar

StartChar: NameMe.69
Encoding: 69 -1 36
Width: 1000
Flags: H
LayerCount: 2
Fore
SplineSet
153.599609375 -64.255859375 m 1
 864.255859375 347.390625 l 2
 871.083007812 351.487304688 877.909179688 351.487304688 884.736328125 347.390625 c 0
 891.563476562 343.294921875 894.975585938 337.151367188 894.975585938 328.958984375 c 2
 894.975585938 -62.208984375 l 2
 896.340820312 -73.1318359375 892.586914062 -83.0302734375 883.711914062 -91.9052734375 c 0
 874.836914062 -100.780273438 864.939453125 -104.534179688 854.015625 -103.168945312 c 2
 163.83984375 -103.168945312 l 2
 152.916992188 -103.168945312 146.090820312 -98.048828125 143.360351562 -87.80859375 c 0
 140.62890625 -77.5693359375 144.04296875 -69.7177734375 153.599609375 -64.2568359375 c 2
 153.599609375 -64.255859375 l 1
323.583984375 -39.6796875 m 1
 831.48828125 -39.6796875 l 1
 831.48828125 253.182617188 l 1
 323.583984375 -39.6796875 l 1
EndSplineSet
Validated: 33
EndChar

StartChar: NameMe.70
Encoding: 70 -1 37
Width: 1000
Flags: H
LayerCount: 2
Fore
SplineSet
382.975585938 578.81640625 m 1
 679.935546875 578.81640625 l 1
 606.208984375 652.543945312 l 2
 600.748046875 658.004882812 598.016601562 664.83203125 598.016601562 673.024414062 c 0
 598.016601562 681.215820312 600.748046875 688.724609375 606.208984375 695.551757812 c 0
 611.668945312 702.377929688 618.497070312 706.1328125 626.689453125 706.815429688 c 0
 634.880859375 707.498046875 642.389648438 705.108398438 649.215820312 699.647460938 c 2
 780.288085938 568.576171875 l 2
 785.749023438 563.115234375 788.48046875 555.947265625 788.48046875 547.072265625 c 0
 788.48046875 538.197265625 785.749023438 530.346679688 780.288085938 523.51953125 c 2
 649.215820312 392.448242188 l 2
 642.388671875 386.987304688 634.5390625 384.939453125 625.6640625 386.303710938 c 0
 616.7890625 387.668945312 609.62109375 391.423828125 604.16015625 397.568359375 c 0
 598.69921875 403.711914062 596.30859375 410.879882812 596.9921875 419.072265625 c 0
 597.674804688 427.263671875 600.747070312 434.7734375 606.208007812 441.599609375 c 2
 679.935546875 515.328125 l 1
 374.78515625 515.328125 l 2
 339.286132812 513.962890625 305.8359375 504.405273438 274.431640625 486.65625 c 0
 248.491210938 473.002929688 228.3515625 455.594726562 214.015625 434.431640625 c 0
 199.6796875 413.268554688 192.51171875 390.05859375 192.51171875 364.799804688 c 0
 192.51171875 339.541015625 199.6796875 316.331054688 214.015625 295.16796875 c 0
 228.3515625 274.004882812 248.491210938 256.596679688 274.431640625 242.944335938 c 0
 308.565429688 225.1953125 345.428710938 216.3203125 385.025390625 216.3203125 c 2
 405.504882812 216.3203125 l 2
 413.697265625 216.3203125 421.206054688 213.248046875 428.033203125 207.103515625 c 0
 434.860351562 200.959960938 438.2734375 193.451171875 438.2734375 184.576171875 c 0
 438.2734375 175.701171875 434.859375 168.192382812 428.033203125 162.047851562 c 0
 421.206054688 155.904296875 413.697265625 152.83203125 405.504882812 152.83203125 c 2
 382.9765625 152.83203125 l 2
 331.09375 152.83203125 283.307617188 165.120117188 239.6171875 189.696289062 c 0
 205.484375 208.810546875 178.176757812 233.727539062 157.697265625 264.448242188 c 0
 137.216796875 295.16796875 126.9765625 328.619140625 126.9765625 364.80078125 c 0
 126.9765625 400.982421875 136.875976562 434.432617188 156.672851562 465.153320312 c 0
 176.469726562 495.873046875 203.435546875 520.790039062 237.569335938 539.905273438 c 0
 279.893554688 564.481445312 324.950195312 577.452148438 372.737304688 578.817382812 c 1
 372.737304688 578.817382812 l 1
 382.9765625 578.817382812 l 1
 382.975585938 578.81640625 l 1
EndSplineSet
Validated: 5
EndChar

StartChar: NameMe.71
Encoding: 71 -1 38
Width: 1000
Flags: H
LayerCount: 2
Fore
SplineSet
880 417.1875 m 2
 880 -77.443359375 l 2
 880 -93.71875 876.581054688 -109.34375 869.744140625 -124.318359375 c 0
 863.237304688 -138.962890625 854.28125 -151.987304688 842.887695312 -163.380859375 c 0
 831.825195312 -174.443359375 818.799804688 -183.400390625 803.825195312 -190.237304688 c 0
 789.181640625 -196.744140625 773.71875 -200 757.443359375 -200 c 2
 509.8828125 -200 l 1
 521.276367188 -190.887695312 532.181640625 -181.119140625 542.59765625 -170.700195312 c 0
 553.014648438 -160.287109375 562.6171875 -149.21875 571.40625 -137.5 c 2
 755 -137.5 l 2
 763.787109375 -137.5 771.924804688 -135.875 779.412109375 -132.619140625 c 0
 786.900390625 -129.362304688 793.412109375 -124.96875 798.943359375 -119.431640625 c 0
 804.806640625 -113.575195312 809.362304688 -106.900390625 812.619140625 -99.412109375 c 0
 815.875 -91.9248046875 817.5 -83.787109375 817.5 -75 c 2
 817.5 417.1875 l 2
 817.5 418.489257812 817.5 419.791992188 817.5 421.09375 c 0
 817.5 422.395507812 817.337890625 423.698242188 817.012695312 425 c 2
 627.55859375 425 l 2
 610.630859375 425 594.681640625 428.41796875 579.70703125 435.25390625 c 0
 565.05859375 442.08984375 552.200195312 451.204101562 541.1328125 462.59765625 c 0
 530.065429688 473.990234375 521.276367188 487.174804688 514.765625 502.1484375 c 0
 508.254882812 517.448242188 505 533.3984375 505 550 c 2
 505 737.01171875 l 2
 503.698242188 737.337890625 502.395507812 737.5 501.09375 737.5 c 0
 499.791992188 737.5 498.489257812 737.5 497.1875 737.5 c 2
 255 737.5 l 2
 246.2109375 737.5 238.073242188 735.872070312 230.5859375 732.6171875 c 0
 223.098632812 729.362304688 216.42578125 724.8046875 210.56640625 718.9453125 c 0
 205.032226562 713.411132812 200.637695312 706.901367188 197.3828125 699.4140625 c 0
 194.127929688 691.926757812 192.5 683.7890625 192.5 675 c 2
 192.5 428.41796875 l 2
 170.690429688 422.55859375 149.856445312 414.74609375 130 404.98046875 c 1
 130 677.44140625 l 2
 130 693.717773438 133.254882812 709.1796875 139.765625 723.828125 c 0
 146.6015625 738.801757812 155.553710938 751.823242188 166.62109375 762.890625 c 0
 178.014648438 774.284179688 191.03515625 783.235351562 205.68359375 789.74609375 c 0
 220.657226562 796.58203125 236.282226562 800 252.55859375 800 c 2
 497.1875 800 l 2
 513.7890625 800 529.739257812 796.745117188 545.0390625 790.234375 c 0
 560.338867188 784.049804688 573.84765625 775.09765625 585.56640625 763.37890625 c 2
 843.380859375 505.56640625 l 2
 855.099609375 493.84765625 864.049804688 480.338867188 870.237304688 465.0390625 c 0
 876.744140625 449.739257812 880 433.7890625 880 417.1875 c 2
567.5 550 m 2
 567.5 541.2109375 569.127929688 532.91015625 572.3828125 525.09765625 c 0
 575.637695312 517.610351562 580.032226562 511.099609375 585.56640625 505.56640625 c 0
 591.099609375 500.032226562 597.610351562 495.637695312 605.09765625 492.3828125 c 0
 612.91015625 489.127929688 621.2109375 487.5 630 487.5 c 2
 773.556640625 487.5 l 1
 567.5 693.5546875 l 1
 567.5 550 l 2
EndSplineSet
Validated: 1
EndChar

StartChar: NameMe.72
Encoding: 72 -1 39
Width: 1000
Flags: H
LayerCount: 2
Fore
SplineSet
514.475585938 -29.8642578125 m 0
 500.689453125 -62.03515625 481.84765625 -90.064453125 457.950195312 -113.96484375 c 0
 434.053710938 -137.858398438 406.01953125 -156.858398438 373.8515625 -170.947265625 c 0
 341.681640625 -184.735351562 307.368164062 -191.629882812 270.91015625 -191.629882812 c 0
 234.145507812 -191.629882812 199.678710938 -184.735351562 167.509765625 -170.947265625 c 0
 135.33984375 -157.165039062 107.306640625 -138.317382812 83.41015625 -114.423828125 c 0
 59.5126953125 -90.5234375 40.6708984375 -62.494140625 26.8837890625 -30.3232421875 c 0
 13.09765625 1.8466796875 6.2041015625 36.3115234375 6.2041015625 73.076171875 c 0
 6.2041015625 109.53515625 13.09765625 143.846679688 26.8837890625 176.017578125 c 0
 40.9775390625 208.188476562 59.97265625 236.219726562 83.869140625 260.1171875 c 0
 107.766601562 284.013671875 135.799804688 302.85546875 167.96875 316.642578125 c 0
 200.137695312 330.736328125 234.452148438 337.782226562 270.91015625 337.782226562 c 0
 295.11328125 337.782226562 318.397460938 334.565429688 340.762695312 328.131835938 c 0
 363.434570312 322.00390625 384.57421875 313.119140625 404.181640625 301.477539062 c 0
 423.790039062 290.141601562 441.711914062 276.354492188 457.950195312 260.1171875 c 0
 474.188476562 243.879882812 487.974609375 225.956054688 499.310546875 206.346679688 c 0
 510.953125 186.741210938 519.837890625 165.599609375 525.96484375 142.9296875 c 0
 532.3984375 120.564453125 535.616210938 97.2822265625 535.616210938 73.076171875 c 0
 535.616210938 36.6171875 528.569335938 2.3056640625 514.475585938 -29.8642578125 c 0
411.995117188 96.51171875 m 2
 294.34765625 214.161132812 l 2
 287.913085938 220.595703125 280.1015625 223.811523438 270.91015625 223.811523438 c 0
 261.71875 223.811523438 253.90625 220.595703125 247.47265625 214.161132812 c 2
 129.825195312 96.51171875 l 2
 123.391601562 90.08203125 120.174804688 82.2705078125 120.174804688 73.076171875 c 0
 120.174804688 63.888671875 123.391601562 56.0703125 129.825195312 49.6416015625 c 0
 136.259765625 43.2060546875 144.071289062 39.98828125 153.262695312 39.98828125 c 0
 162.454101562 39.98828125 170.266601562 43.2060546875 176.700195312 49.6416015625 c 2
 241.498046875 114.435546875 l 1
 241.498046875 -44.5703125 l 2
 241.498046875 -52.53515625 244.409179688 -59.4296875 250.23046875 -65.2529296875 c 0
 256.05078125 -71.0703125 262.944335938 -73.982421875 270.91015625 -73.982421875 c 0
 278.875976562 -73.982421875 285.768554688 -71.0703125 291.58984375 -65.2529296875 c 0
 297.411132812 -59.4296875 300.321289062 -52.53515625 300.321289062 -44.5703125 c 2
 300.321289062 114.435546875 l 1
 365.119140625 49.6416015625 l 2
 371.553710938 43.2060546875 379.366210938 39.98828125 388.556640625 39.98828125 c 0
 397.748046875 39.98828125 405.560546875 43.2060546875 411.995117188 49.6416015625 c 0
 418.428710938 56.0703125 421.645507812 63.888671875 421.645507812 73.076171875 c 0
 421.645507812 82.2705078125 418.428710938 90.08203125 411.995117188 96.51171875 c 2
EndSplineSet
Validated: 1
EndChar

StartChar: NameMe.73
Encoding: 73 -1 40
Width: 1000
Flags: H
LayerCount: 2
Fore
SplineSet
123.8515625 455.4296875 m 2
 115.579101562 455.4296875 107.766601562 456.961914062 100.413085938 460.025390625 c 0
 93.3671875 463.088867188 87.2392578125 467.224609375 82.03125 472.43359375 c 0
 76.8232421875 477.641601562 72.6875 483.768554688 69.623046875 490.815429688 c 0
 66.5595703125 498.168945312 65.02734375 505.981445312 65.02734375 514.252929688 c 2
 65.02734375 631.900390625 l 2
 65.02734375 640.171875 66.5595703125 647.83203125 69.623046875 654.877929688 c 0
 72.6875 661.924804688 76.8232421875 668.052734375 82.03125 673.260742188 c 0
 87.5458984375 678.775390625 93.826171875 683.064453125 100.873046875 686.127929688 c 0
 107.919921875 689.19140625 115.579101562 690.723632812 123.8515625 690.723632812 c 2
 241.498046875 690.723632812 l 2
 249.463867188 690.723632812 256.969726562 689.19140625 264.016601562 686.127929688 c 0
 271.369140625 683.064453125 277.650390625 678.775390625 282.858398438 673.260742188 c 0
 288.373046875 668.052734375 292.662109375 661.771484375 295.725585938 654.418945312 c 0
 298.790039062 647.372070312 300.321289062 639.866210938 300.321289062 631.900390625 c 2
 300.321289062 514.252929688 l 2
 300.321289062 505.981445312 298.790039062 498.321289062 295.725585938 491.275390625 c 0
 292.662109375 484.228515625 288.373046875 477.948242188 282.858398438 472.43359375 c 0
 277.650390625 467.224609375 271.522460938 463.088867188 264.475585938 460.025390625 c 0
 257.4296875 456.961914062 249.76953125 455.4296875 241.498046875 455.4296875 c 2
 123.8515625 455.4296875 l 2
123.8515625 631.900390625 m 1
 123.8515625 514.252929688 l 1
 241.498046875 514.252929688 l 1
 241.498046875 631.900390625 l 1
 123.8515625 631.900390625 l 1
388.556640625 573.076171875 m 2
 380.590820312 573.076171875 373.697265625 575.987304688 367.876953125 581.80859375 c 0
 362.055664062 587.629882812 359.145507812 594.522460938 359.145507812 602.48828125 c 0
 359.145507812 610.454101562 362.055664062 617.34765625 367.876953125 623.168945312 c 0
 373.697265625 628.989257812 380.590820312 631.900390625 388.556640625 631.900390625 c 2
 859.147460938 631.900390625 l 2
 867.111328125 631.900390625 874.005859375 628.989257812 879.823242188 623.168945312 c 0
 885.647460938 617.34765625 888.55859375 610.454101562 888.55859375 602.48828125 c 0
 888.55859375 594.522460938 885.647460938 587.629882812 879.823242188 581.80859375 c 0
 874.005859375 575.987304688 867.111328125 573.076171875 859.147460938 573.076171875 c 2
 388.556640625 573.076171875 l 2
123.8515625 161.311523438 m 2
 115.579101562 161.311523438 107.766601562 162.840820312 100.413085938 165.90625 c 0
 93.3671875 168.970703125 87.2392578125 173.10546875 82.03125 178.317382812 c 0
 76.8232421875 183.5234375 72.6875 189.653320312 69.623046875 196.700195312 c 0
 66.5595703125 204.052734375 65.02734375 211.86328125 65.02734375 220.135742188 c 2
 65.02734375 337.782226562 l 2
 65.02734375 346.0546875 66.5595703125 353.713867188 69.623046875 360.760742188 c 0
 72.6875 367.806640625 76.8232421875 373.934570312 82.03125 379.142578125 c 0
 87.5458984375 384.657226562 93.826171875 388.947265625 100.873046875 392.010742188 c 0
 107.919921875 395.07421875 115.579101562 396.60546875 123.8515625 396.60546875 c 2
 241.498046875 396.60546875 l 2
 249.463867188 396.60546875 256.969726562 395.07421875 264.016601562 392.010742188 c 0
 271.369140625 388.947265625 277.650390625 384.657226562 282.858398438 379.142578125 c 0
 288.373046875 373.934570312 292.662109375 367.654296875 295.725585938 360.30078125 c 0
 298.790039062 353.25390625 300.321289062 345.748046875 300.321289062 337.782226562 c 2
 300.321289062 220.135742188 l 2
 300.321289062 211.86328125 298.790039062 204.206054688 295.725585938 197.159179688 c 0
 292.662109375 190.111328125 288.373046875 183.829101562 282.858398438 178.317382812 c 0
 277.650390625 173.10546875 271.522460938 168.970703125 264.475585938 165.90625 c 0
 257.4296875 162.840820312 249.76953125 161.311523438 241.498046875 161.311523438 c 2
 123.8515625 161.311523438 l 2
123.8515625 337.782226562 m 1
 123.8515625 220.135742188 l 1
 241.498046875 220.135742188 l 1
 241.498046875 337.782226562 l 1
 123.8515625 337.782226562 l 1
388.556640625 278.958984375 m 2
 380.590820312 278.958984375 373.697265625 281.869140625 367.876953125 287.690429688 c 0
 362.055664062 293.51171875 359.145507812 300.405273438 359.145507812 308.370117188 c 0
 359.145507812 316.336914062 362.055664062 323.23046875 367.876953125 329.05078125 c 0
 373.697265625 334.872070312 380.590820312 337.782226562 388.556640625 337.782226562 c 2
 472.196289062 337.782226562 l 1
 461.473632812 329.204101562 451.209960938 320.012695312 441.40625 310.208984375 c 0
 431.602539062 300.405273438 422.564453125 289.98828125 414.291992188 278.958984375 c 2
 388.556640625 278.958984375 l 2
123.8515625 -132.805664062 m 2
 115.579101562 -132.805664062 107.766601562 -131.276367188 100.413085938 -128.211914062 c 0
 93.3671875 -125.147460938 87.2392578125 -121.01171875 82.03125 -115.799804688 c 0
 76.8232421875 -110.59375 72.6875 -104.46484375 69.623046875 -97.41796875 c 0
 66.5595703125 -90.064453125 65.02734375 -82.2529296875 65.02734375 -73.982421875 c 2
 65.02734375 43.6650390625 l 2
 65.02734375 51.935546875 66.5595703125 59.59375 69.623046875 66.6416015625 c 0
 72.6875 73.6884765625 76.8232421875 79.8173828125 82.03125 85.0234375 c 0
 87.5458984375 90.541015625 93.826171875 94.8291015625 100.873046875 97.89453125 c 0
 107.919921875 100.958984375 115.579101562 102.48828125 123.8515625 102.48828125 c 2
 241.498046875 102.48828125 l 2
 249.463867188 102.48828125 256.969726562 100.958984375 264.016601562 97.89453125 c 0
 271.369140625 94.8291015625 277.650390625 90.541015625 282.858398438 85.0234375 c 0
 288.373046875 79.8173828125 292.662109375 73.53515625 295.725585938 66.1826171875 c 0
 298.790039062 59.1357421875 300.321289062 51.6298828125 300.321289062 43.6650390625 c 2
 300.321289062 -73.982421875 l 2
 300.321289062 -82.2529296875 298.790039062 -89.912109375 295.725585938 -96.958984375 c 0
 292.662109375 -104.005859375 288.373046875 -110.288085938 282.858398438 -115.799804688 c 0
 277.650390625 -121.01171875 271.522460938 -125.147460938 264.475585938 -128.211914062 c 0
 257.4296875 -131.276367188 249.76953125 -132.805664062 241.498046875 -132.805664062 c 2
 123.8515625 -132.805664062 l 2
123.8515625 43.6650390625 m 1
 123.8515625 -73.982421875 l 1
 241.498046875 -73.982421875 l 1
 241.498046875 43.6650390625 l 1
 123.8515625 43.6650390625 l 1
EndSplineSet
Validated: 1
EndChar

StartChar: NameMe.74
Encoding: 74 -1 41
Width: 1000
Flags: H
LayerCount: 2
Fore
SplineSet
417.96875 73.076171875 m 0
 417.96875 109.53515625 424.862304688 143.846679688 438.6484375 176.017578125 c 0
 452.7421875 208.188476562 471.737304688 236.219726562 495.633789062 260.1171875 c 0
 519.53125 284.013671875 547.564453125 302.85546875 579.733398438 316.642578125 c 0
 611.900390625 330.736328125 646.217773438 337.782226562 682.676757812 337.782226562 c 0
 706.876953125 337.782226562 730.165039062 334.565429688 752.529296875 328.131835938 c 0
 775.200195312 322.00390625 796.340820312 313.119140625 815.947265625 301.477539062 c 0
 835.552734375 290.141601562 853.4765625 276.354492188 869.717773438 260.1171875 c 0
 885.953125 243.879882812 899.741210938 225.956054688 911.076171875 206.346679688 c 0
 922.717773438 186.741210938 931.599609375 165.599609375 937.729492188 142.9296875 c 0
 944.165039062 120.564453125 947.3828125 97.2822265625 947.3828125 73.076171875 c 0
 947.3828125 36.6171875 940.334960938 2.3056640625 926.241210938 -29.8642578125 c 0
 912.453125 -62.03515625 893.611328125 -90.064453125 869.717773438 -113.96484375 c 0
 845.817382812 -137.858398438 817.782226562 -156.858398438 785.6171875 -170.947265625 c 0
 753.447265625 -184.735351562 719.135742188 -191.629882812 682.676757812 -191.629882812 c 0
 645.912109375 -191.629882812 611.44140625 -184.735351562 579.274414062 -170.947265625 c 0
 547.104492188 -157.165039062 519.071289062 -138.317382812 495.174804688 -114.423828125 c 0
 471.27734375 -90.5234375 452.435546875 -62.494140625 438.6484375 -30.3232421875 c 0
 424.862304688 1.8466796875 417.96875 36.3115234375 417.96875 73.076171875 c 0
712.087890625 114.435546875 m 1
 776.8828125 49.6416015625 l 2
 783.317382812 43.2060546875 791.129882812 39.98828125 800.323242188 39.98828125 c 0
 809.51171875 39.98828125 817.323242188 43.2060546875 823.758789062 49.6416015625 c 0
 830.194335938 56.0703125 833.412109375 63.888671875 833.412109375 73.076171875 c 0
 833.412109375 82.2705078125 830.194335938 90.08203125 823.758789062 96.51171875 c 2
 706.111328125 214.161132812 l 2
 699.676757812 220.595703125 691.864257812 223.811523438 682.676757812 223.811523438 c 0
 673.482421875 223.811523438 665.670898438 220.595703125 659.235351562 214.161132812 c 2
 541.58984375 96.51171875 l 2
 535.15625 90.08203125 531.939453125 82.2705078125 531.939453125 73.076171875 c 0
 531.939453125 63.888671875 535.15625 56.0703125 541.58984375 49.6416015625 c 0
 548.024414062 43.2060546875 555.836914062 39.98828125 565.02734375 39.98828125 c 0
 574.21875 39.98828125 582.03125 43.2060546875 588.46484375 49.6416015625 c 2
 653.264648438 114.435546875 l 1
 653.264648438 -44.5703125 l 2
 653.264648438 -52.53515625 656.170898438 -59.4296875 661.994140625 -65.2529296875 c 0
 667.817382812 -71.0703125 674.711914062 -73.982421875 682.676757812 -73.982421875 c 0
 690.641601562 -73.982421875 697.53515625 -71.0703125 703.352539062 -65.2529296875 c 0
 709.176757812 -59.4296875 712.087890625 -52.53515625 712.087890625 -44.5703125 c 2
 712.087890625 114.435546875 l 1
EndSplineSet
Validated: 1
EndChar

StartChar: NameMe.75
Encoding: 75 -1 42
Width: 1000
Flags: H
LayerCount: 2
Fore
SplineSet
770.912109375 631.900390625 m 2
 182.674804688 631.900390625 l 2
 150.1875 631.900390625 123.8515625 605.564453125 123.8515625 573.076171875 c 2
 123.8515625 -15.1591796875 l 2
 123.8515625 -47.6474609375 150.1875 -73.982421875 182.674804688 -73.982421875 c 2
 770.912109375 -73.982421875 l 2
 803.400390625 -73.982421875 829.735351562 -47.6474609375 829.735351562 -15.1591796875 c 2
 829.735351562 573.076171875 l 2
 829.735351562 605.564453125 803.400390625 631.900390625 770.912109375 631.900390625 c 2
182.674804688 690.723632812 m 2
 770.912109375 690.723632812 l 2
 835.8828125 690.723632812 888.55859375 638.05078125 888.55859375 573.076171875 c 2
 888.55859375 -15.1591796875 l 2
 888.55859375 -80.1357421875 835.8828125 -132.805664062 770.912109375 -132.805664062 c 2
 182.674804688 -132.805664062 l 2
 117.700195312 -132.805664062 65.02734375 -80.1357421875 65.02734375 -15.1591796875 c 2
 65.02734375 573.076171875 l 2
 65.02734375 638.05078125 117.700195312 690.723632812 182.674804688 690.723632812 c 2
EndSplineSet
Validated: 1
EndChar

StartChar: NameMe.76
Encoding: 76 -1 43
Width: 1000
Flags: H
LayerCount: 2
Fore
SplineSet
359.145507812 484.840820312 m 0
 359.145507812 501.084960938 372.313476562 514.252929688 388.556640625 514.252929688 c 2
 682.676757812 514.252929688 l 2
 698.91796875 514.252929688 712.087890625 501.084960938 712.087890625 484.840820312 c 2
 712.087890625 190.723632812 l 2
 712.087890625 174.482421875 698.91796875 161.311523438 682.676757812 161.311523438 c 0
 666.4296875 161.311523438 653.264648438 174.482421875 653.264648438 190.723632812 c 2
 653.264648438 413.834960938 l 1
 291.70703125 52.2822265625 l 2
 280.220703125 40.7939453125 261.598632812 40.7939453125 250.11328125 52.2822265625 c 0
 238.626953125 63.7646484375 238.626953125 82.388671875 250.11328125 93.876953125 c 2
 611.670898438 455.4296875 l 1
 388.556640625 455.4296875 l 2
 372.313476562 455.4296875 359.145507812 468.59765625 359.145507812 484.840820312 c 0
EndSplineSet
Validated: 33
EndChar

StartChar: NameMe.77
Encoding: 77 -1 44
Width: 1000
Flags: H
LayerCount: 2
Fore
SplineSet
156.25 800 m 2
 265.625 800 l 2
 334.478515625 800 399.313476562 767.58203125 440.625 712.5 c 2
 468.75 675 l 1
 843.75 675 l 2
 930.043945312 675 1000 605.043945312 1000 518.75 c 2
 1000 278.89453125 l 1
 992.34375 289.79296875 977.568359375 306.739257812 968.8125 316.559570312 c 0
 964.181640625 321.75390625 959.9375 327.26953125 956.200195312 333.139648438 c 2
 954.293945312 336.1328125 l 2
 943.325195312 353.352539062 937.5 373.344726562 937.5 393.76171875 c 1
 937.5 393.76171875 l 1
 937.494140625 445.532226562 895.525390625 487.5 843.75 487.5 c 2
 812.5 487.5 l 1
 477.190429688 487.5 l 2
 467.916015625 487.5 459.12109375 483.380859375 453.18359375 476.255859375 c 2
 410.469726562 425 l 1
 156.25 425 l 2
 115.430664062 425 75.3701171875 398.912109375 62.5 362.5 c 2
 62.5 -12.025390625 l 1
 64.396484375 -35.119140625 l 2
 66.5380859375 -61.193359375 69.955078125 -88.78125 87.85546875 -107.869140625 c 0
 104.958984375 -126.106445312 129.2734375 -137.5 156.25 -137.5 c 2
 453.583984375 -137.5 l 2
 460.528320312 -145.918945312 467.899414062 -154.037109375 475.681640625 -161.818359375 c 0
 489.790039062 -175.924804688 504.999023438 -188.681640625 521.10546875 -200 c 1
 156.25 -200 l 2
 69.9560546875 -200 0 -130.043945312 0 -43.75 c 2
 0 643.75 l 2
 0 730.043945312 69.9560546875 800 156.25 800 c 2
843.75 612.5 m 2
 437.5 612.5 l 1
 390.625 675 l 2
 361.116210938 714.344726562 314.805664062 737.5 265.625 737.5 c 2
 156.25 737.5 l 2
 104.47265625 737.5 62.5 695.52734375 62.5 643.75 c 2
 62.5 456.26171875 l 1
 88.6142578125 475.876953125 121.075195312 487.5 156.25 487.5 c 2
 381.197265625 487.5 l 1
 405.168945312 516.267578125 l 2
 422.981445312 537.641601562 449.3671875 550 477.190429688 550 c 2
 843.75 550 l 2
 878.924804688 550 911.387695312 538.375976562 937.5 518.76171875 c 1
 937.494140625 570.532226562 895.525390625 612.5 843.75 612.5 c 2
EndSplineSet
Validated: 1
EndChar

StartChar: NameMe.78
Encoding: 78 -1 45
Width: 1000
Flags: H
LayerCount: 2
Fore
SplineSet
917.625 -117.625 m 0
 864.880859375 -170.369140625 793.34375 -200 718.75 -200 c 0
 644.15625 -200 572.62109375 -170.369140625 519.875976562 -117.625 c 0
 467.131835938 -64.880859375 437.5 6.65625 437.5 81.25 c 0
 437.5 155.84375 467.131835938 227.37890625 519.875976562 280.124023438 c 0
 572.62109375 332.868164062 644.15625 362.5 718.75 362.5 c 0
 793.34375 362.5 864.880859375 332.868164062 917.625 280.124023438 c 0
 970.369140625 227.37890625 1000 155.84375 1000 81.25 c 0
 1000 6.65625 970.369140625 -64.880859375 917.625 -117.625 c 0
740.849609375 228.346679688 m 2
 728.643554688 240.55078125 708.856445312 240.55078125 696.650390625 228.346679688 c 0
 684.450195312 216.143554688 684.450195312 196.356445312 696.650390625 184.153320312 c 2
 768.306640625 112.5 l 1
 593.75 112.5 l 2
 576.491210938 112.5 562.5 98.505859375 562.5 81.25 c 0
 562.5 63.994140625 576.491210938 50 593.75 50 c 2
 768.306640625 50 l 1
 696.650390625 -21.650390625 l 2
 684.450195312 -33.8564453125 684.450195312 -53.6435546875 696.650390625 -65.849609375 c 0
 708.856445312 -78.0498046875 728.643554688 -78.0498046875 740.849609375 -65.849609375 c 2
 865.849609375 59.150390625 l 2
 878.049804688 71.3564453125 878.049804688 91.1435546875 865.849609375 103.349609375 c 2
 740.849609375 228.346679688 l 2
EndSplineSet
Validated: 33
EndChar

StartChar: NameMe.79
Encoding: 79 -1 46
Width: 1000
Flags: H
LayerCount: 2
Fore
SplineSet
161.62109375 512.889648438 m 0
 169.474609375 520.743164062 178.100585938 527.436523438 187.5 532.969726562 c 1
 187.5 112.5 l 2
 187.5 103.712890625 189.127929688 95.412109375 192.3828125 87.599609375 c 0
 195.637695312 80.1123046875 200.032226562 73.599609375 205.56640625 68.068359375 c 0
 211.099609375 62.53125 217.610351562 58.1376953125 225.09765625 54.880859375 c 0
 232.91015625 51.625 241.2109375 50 250 50 c 2
 750 50 l 1
 750.318359375 50 l 1
 857.96875 50 l 1
 852.4375 40.599609375 845.744140625 31.974609375 837.887695312 24.119140625 c 0
 826.825195312 13.0498046875 813.799804688 4.099609375 798.825195312 -2.7373046875 c 0
 784.181640625 -9.244140625 768.71875 -12.5 752.443359375 -12.5 c 2
 247.55859375 -12.5 l 2
 231.282226562 -12.5 215.657226562 -9.244140625 200.68359375 -2.7373046875 c 0
 186.03515625 4.099609375 173.014648438 13.0498046875 161.62109375 24.119140625 c 0
 150.552734375 35.5126953125 141.6015625 48.537109375 134.765625 63.181640625 c 0
 128.254882812 78.15625 125 93.78125 125 110.056640625 c 2
 125 427.440429688 l 2
 125 443.716796875 128.254882812 459.178710938 134.765625 473.827148438 c 0
 141.6015625 488.80078125 150.552734375 501.822265625 161.62109375 512.889648438 c 0
218.75 -137.5 m 2
 188.4765625 -137.5 159.994140625 -131.806640625 133.30078125 -120.412109375 c 0
 106.93359375 -109.018554688 83.822265625 -93.3935546875 63.96484375 -73.537109375 c 0
 44.1083984375 -53.681640625 28.4833984375 -30.568359375 17.08984375 -4.2001953125 c 0
 5.6962890625 22.494140625 0 50.974609375 0 81.25 c 2
 0 299.999023438 l 2
 0 322.459960938 5.5341796875 343.130859375 16.6015625 362.01171875 c 0
 27.9951171875 380.891601562 43.2939453125 396.028320312 62.5 407.420898438 c 1
 62.5 81.25 l 2
 62.5 59.7626953125 66.568359375 39.4189453125 74.70703125 20.212890625 c 0
 82.8447265625 1.3310546875 93.912109375 -15.2685546875 107.91015625 -29.587890625 c 0
 122.233398438 -43.587890625 138.833984375 -54.65625 157.71484375 -62.7939453125 c 0
 176.920898438 -70.931640625 197.265625 -75 218.75 -75 c 2
 732.424804688 -75 l 1
 721.03125 -94.2060546875 705.893554688 -109.505859375 687.012695312 -120.900390625 c 0
 668.130859375 -131.96875 647.462890625 -137.5 625 -137.5 c 2
 218.75 -137.5 l 2
EndSplineSet
Validated: 1
EndChar

StartChar: NameMe.80
Encoding: 80 -1 47
Width: 1000
Flags: H
LayerCount: 2
Fore
SplineSet
296.447265625 733.525390625 m 0
 303.690429688 729.505859375 309.040039062 722.775390625 311.322265625 714.8125 c 2
 436.322265625 277.3125 l 2
 438.59375 269.33984375 437.604492188 260.791015625 433.572265625 253.546875 c 0
 429.540039062 246.303710938 422.795898438 240.958007812 414.822265625 238.6875 c 0
 406.849609375 236.416992188 398.30078125 237.40625 391.057617188 241.438476562 c 0
 383.813476562 245.469726562 378.46875 252.21484375 376.197265625 260.1875 c 2
 251.197265625 697.6875 l 2
 250.072265625 701.635742188 249.735351562 705.766601562 250.20703125 709.844726562 c 0
 250.677734375 713.922851562 251.94921875 717.8671875 253.9453125 721.454101562 c 0
 255.94140625 725.041015625 258.625976562 728.200195312 261.842773438 730.749023438 c 0
 265.060546875 733.298828125 268.749023438 735.188476562 272.697265625 736.3125 c 1
 272.697265625 736.25 l 1
 280.662109375 738.525390625 289.204101562 737.545898438 296.447265625 733.525390625 c 0
483.947265625 733.525390625 m 0
 491.190429688 729.505859375 496.540039062 722.775390625 498.822265625 714.8125 c 2
 623.822265625 277.3125 l 2
 626.09375 269.33984375 625.106445312 260.791015625 621.072265625 253.546875 c 0
 617.040039062 246.303710938 610.295898438 240.958007812 602.322265625 238.6875 c 0
 594.349609375 236.416992188 585.80078125 237.40625 578.557617188 241.438476562 c 0
 571.313476562 245.469726562 565.96875 252.21484375 563.697265625 260.1875 c 2
 438.697265625 697.6875 l 2
 437.572265625 701.635742188 437.235351562 705.766601562 437.70703125 709.844726562 c 0
 438.177734375 713.922851562 439.44921875 717.8671875 441.4453125 721.454101562 c 0
 443.44140625 725.041015625 446.125976562 728.200195312 449.342773438 730.749023438 c 0
 452.560546875 733.298828125 456.249023438 735.188476562 460.197265625 736.3125 c 1
 460.197265625 736.25 l 1
 468.162109375 738.525390625 476.704101562 737.545898438 483.947265625 733.525390625 c 0
798.78125 251.229492188 m 0
 789.987304688 242.438476562 778.0625 237.5 765.630859375 237.5 c 0
 753.200195312 237.5 741.275390625 242.438476562 732.487304688 251.229492188 c 0
 723.693359375 260.01953125 718.755859375 271.943359375 718.755859375 284.375 c 0
 718.755859375 296.806640625 723.693359375 308.73046875 732.487304688 317.520507812 c 0
 741.275390625 326.311523438 753.200195312 331.25 765.630859375 331.25 c 0
 778.0625 331.25 789.987304688 326.311523438 798.78125 317.520507812 c 0
 807.568359375 308.73046875 812.505859375 296.806640625 812.505859375 284.375 c 0
 812.505859375 271.943359375 807.568359375 260.01953125 798.78125 251.229492188 c 0
955.03125 251.229492188 m 0
 946.237304688 242.438476562 934.3125 237.5 921.880859375 237.5 c 0
 909.450195312 237.5 897.525390625 242.438476562 888.737304688 251.229492188 c 0
 879.943359375 260.01953125 875.005859375 271.943359375 875.005859375 284.375 c 0
 875.005859375 296.806640625 879.943359375 308.73046875 888.737304688 317.520507812 c 0
 897.525390625 326.311523438 909.450195312 331.25 921.880859375 331.25 c 0
 934.3125 331.25 946.237304688 326.311523438 955.03125 317.520507812 c 0
 963.818359375 308.73046875 968.755859375 296.806640625 968.755859375 284.375 c 0
 968.755859375 271.943359375 963.818359375 260.01953125 955.03125 251.229492188 c 0
EndSplineSet
Validated: 1
EndChar

StartChar: NameMe.81
Encoding: 81 -1 48
Width: 1000
Flags: HW
LayerCount: 2
Fore
SplineSet
500 -137.5 m 0
 741.625 -137.5 937.5 58.375 937.5 300 c 0
 937.5 541.624023438 741.625 737.5 500 737.5 c 0
 258.375976562 737.5 62.5 541.624023438 62.5 300 c 0
 62.5 58.375 258.375976562 -137.5 500 -137.5 c 0
62.5 300 m 0
 62.5 58.375 258.375 -137.5 500 -137.5 c 0
 741.625 -137.5 937.5 58.375 937.5 300 c 0
 937.5 541.625 741.625 737.5 500 737.5 c 0
 258.375 737.5 62.5 541.625 62.5 300 c 0
EndSplineSet
Validated: 5
EndChar

StartChar: NameMe.82
Encoding: 82 -1 49
Width: 1000
Flags: HW
LayerCount: 2
Fore
SplineSet
255.333984375 675 m 2
 156.25 675 l 2
 140.0703125 675 126.76171875 662.703125 125.161132812 646.9453125 c 0
 125.0546875 645.89453125 125 644.829101562 125 643.75 c 2
 125 -106.25 l 2
 125 -123.505859375 138.991210938 -137.5 156.25 -137.5 c 2
 378.125976562 -137.5 l 1
 376.076171875 -127.400390625 375 -116.950195312 375 -106.25 c 2
 375 393.75 l 2
 375 480.043945312 444.956054688 550 531.25 550 c 2
 750 550 l 1
 750 643.75 l 2
 750 661.008789062 736.005859375 675 718.75 675 c 2
 619.666015625 675 l 2
 606.795898438 638.587890625 572.069335938 612.5 531.25 612.5 c 2
 343.75 612.5 l 2
 302.930664062 612.5 268.204101562 638.587890625 255.333984375 675 c 2
562.5 706.25 m 0
 562.5 723.508789062 548.508789062 737.5 531.25 737.5 c 2
 343.75 737.5 l 2
 326.491210938 737.5 312.5 723.508789062 312.5 706.25 c 0
 312.5 688.991210938 326.491210938 675 343.75 675 c 2
 531.25 675 l 2
 548.508789062 675 562.5 688.991210938 562.5 706.25 c 0
312.5 706.25 m 0
 312.5 688.991210938 326.491210938 675 343.75 675 c 2
 531.25 675 l 2
 548.508789062 675 562.5 688.991210938 562.5 706.25 c 0
 562.5 723.508789062 548.508789062 737.5 531.25 737.5 c 2
 343.75 737.5 l 2
 326.491210938 737.5 312.5 723.508789062 312.5 706.25 c 0
EndSplineSet
Validated: 5
EndChar

StartChar: NameMe.83
Encoding: 83 -1 50
Width: 1000
Flags: HW
LayerCount: 2
Fore
SplineSet
160.0625 612.5 m 1
 240.25 -82.1875 l 2
 242.012695312 -97.412109375 249.30859375 -111.462890625 260.750976562 -121.65625 c 0
 272.193359375 -131.856445312 286.985351562 -137.494140625 302.3125 -137.5 c 2
 697.6875 -137.5 l 2
 713.012695312 -137.494140625 727.806640625 -131.856445312 739.25 -121.65625 c 0
 750.693359375 -111.462890625 757.987304688 -97.412109375 759.75 -82.1875 c 2
 839.875 612.5 l 1
 160.0625 612.5 l 1
EndSplineSet
Validated: 9
EndChar

StartChar: NameMe.84
Encoding: 84 -1 51
Width: 1000
Flags: HW
LayerCount: 2
Fore
SplineSet
406.25 612.5 m 1
 156.25 612.5 l 2
 104.47265625 612.5 62.5 570.52734375 62.5 518.75 c 2
 62.5 81.25 l 2
 62.5 29.474609375 104.47265625 -12.5 156.25 -12.5 c 2
 406.25 -12.5 l 1025
593.75 -12.5 m 1
 843.75 -12.5 l 2
 895.525390625 -12.5 937.5 29.474609375 937.5 81.25 c 2
 937.5 518.75 l 2
 937.5 570.52734375 895.525390625 612.5 843.75 612.5 c 2
 593.75 612.5 l 1025
406.25 612.5 m 1
 156.25 612.5 l 2
 104.47265625 612.5 62.5 570.52734375 62.5 518.75 c 2
 62.5 81.25 l 2
 62.5 29.474609375 104.47265625 -12.5 156.25 -12.5 c 2
 406.25 -12.5 l 1
 406.25 612.5 l 1
593.75 -12.5 m 1
 843.75 -12.5 l 2
 895.525390625 -12.5 937.5 29.474609375 937.5 81.25 c 2
 937.5 518.75 l 2
 937.5 570.52734375 895.525390625 612.5 843.75 612.5 c 2
 593.75 612.5 l 1
 593.75 -12.5 l 1
EndSplineSet
Validated: 11
EndChar

StartChar: NameMe.85
Encoding: 85 -1 52
Width: 1000
Flags: HW
LayerCount: 2
Fore
SplineSet
375 112.5 m 1
 375 18.75 l 2
 375 -33.025390625 416.97265625 -75 468.75 -75 c 2
 781.25 -75 l 2
 833.025390625 -75 875 -33.025390625 875 18.75 c 2
 875 331.25 l 2
 875 383.02734375 833.025390625 425 781.25 425 c 2
 687.5 425 l 1025
375 112.5 m 1
 375 18.75 l 2
 375 -33.025390625 416.97265625 -75 468.75 -75 c 2
 781.25 -75 l 2
 833.025390625 -75 875 -33.025390625 875 18.75 c 2
 875 331.25 l 2
 875 383.02734375 833.025390625 425 781.25 425 c 2
 687.5 425 l 1
 687.5 268.75 l 2
 687.5 182.456054688 617.543945312 112.5 531.25 112.5 c 2
 375 112.5 l 1
475.145507812 574.854492188 m 2
 497.219726562 596.928710938 535.15625 581.125 535.15625 550 c 0
 535.15625 540.298828125 531.217773438 531.509765625 524.854492188 525.145507812 c 2
 306.104492188 306.395507812 l 2
 292.369140625 292.66015625 270.130859375 292.66015625 256.395507812 306.395507812 c 2
 162.645507812 400.145507812 l 2
 140.571289062 422.219726562 156.375 460.15625 187.5 460.15625 c 0
 197.201171875 460.15625 205.990234375 456.217773438 212.354492188 449.854492188 c 2
 281.25 380.958984375 l 1
 475.145507812 574.854492188 l 2
EndSplineSet
Validated: 524331
EndChar

StartChar: NameMe.86
Encoding: 86 -1 53
Width: 1000
Flags: H
LayerCount: 2
Fore
SplineSet
500 425 m 1
 125 425 l 1
 125 50 l 2
 125 -19.037109375 180.96484375 -75 250 -75 c 2
 500 -75 l 1
 500 425 l 1
500 425 m 1
 125 425 l 1
 125 50 l 2
 125 -19.037109375 180.96484375 -75 250 -75 c 2
 500 -75 l 1025
EndSplineSet
EndChar
